<?xml version="1.0" encoding="UTF-8" standalone="no"?>
<!-- Created with Inkscape (http://www.inkscape.org/) -->

<svg
   width="48.891472mm"
   height="39.627529mm"
   viewBox="0 0 48.891472 39.627529"
   version="1.1"
   id="svg1"
   xmlns:inkscape="http://www.inkscape.org/namespaces/inkscape"
   xmlns:sodipodi="http://sodipodi.sourceforge.net/DTD/sodipodi-0.dtd"
   xmlns="http://www.w3.org/2000/svg"
   xmlns:svg="http://www.w3.org/2000/svg">
  <sodipodi:namedview
     id="namedview1"
     pagecolor="#505050"
     bordercolor="#ffffff"
     borderopacity="1"
     inkscape:showpageshadow="0"
     inkscape:pageopacity="0"
     inkscape:pagecheckerboard="1"
     inkscape:deskcolor="#d1d1d1"
     inkscape:document-units="mm">
    <inkscape:page
       x="0"
       y="0"
       width="48.891472"
       height="39.627525"
       id="page2"
       margin="0"
       bleed="0" />
  </sodipodi:namedview>
  <defs
     id="defs1" />
  <g
     inkscape:label="Layer 1"
     inkscape:groupmode="layer"
     id="layer1"
     transform="translate(-0.96377305,-1.1005938)">
    <g
       id="g132"
       transform="matrix(0.26458333,0,0,0.26458333,-18.439004,-11.775802)">
      <path
         id="path133"
         d="m 123.31,770.61 c 0,-0.14 -0.49,-0.82 -1.43,-2.03 -1.21,-1.57 -2.34,-2.34 -3.42,-2.34 -1.21,0 -1.81,0.8 -1.81,2.45 0,0.53 0.1,1.17 0.29,1.98 -1,-1.04 -1.83,-2.03 -2.44,-3.04 -0.63,-1.01 -1.74,-3.03 -3.27,-6.13 -0.83,0.08 -1.33,0.11 -1.48,0.11 -0.07,0 -0.54,-0.03 -1.45,-0.11 1.28,2.48 2.63,4.93 3.91,7.41 1.93,3.72 2.94,6.02 2.94,6.91 0,0.53 -0.19,0.78 -0.58,0.78 -0.88,0 -2.54,-1.98 -4.84,-6.02 -0.14,-0.25 -0.26,-0.39 -0.38,-0.39 -0.07,0.03 -0.1,0.09 -0.1,0.17 0.03,0.08 0.05,0.17 0.1,0.22 0.14,0.24 0.29,0.47 0.43,0.7 2.42,3.84 4.1,5.74 4.99,5.74 1.28,0 1.93,-0.95 1.93,-2.87 0,-1.42 -0.67,-3.3 -1.96,-5.68 0.83,1.12 1.63,2.02 2.36,2.73 0.59,1.64 1.37,3.03 2.27,4.15 0.87,1.12 1.69,1.67 2.41,1.67 0.5,0 0.74,-0.25 0.74,-0.75 0,-0.89 -1.11,-2.15 -3.32,-3.82 -0.35,-0.25 -0.88,-0.63 -1.57,-1.14 -0.1,-0.1 -0.19,-0.19 -0.29,-0.28 -0.21,-0.87 -0.33,-1.56 -0.33,-2.12 0,-1.56 0.5,-2.34 1.5,-2.34 1.24,0 2.62,1.19 4.06,3.6 0.3,0.42 0.52,0.61 0.59,0.61 0.1,0 0.15,-0.06 0.15,-0.17 z"
         style="fill:#002060;fill-opacity:1;fill-rule:evenodd;stroke:none"
         transform="matrix(1.3333333,0,0,-1.3333333,0,1122.56)" />
      <path
         id="path134"
         d="m 135.12,770.61 c 0,-0.25 -1.15,-1.79 -3.37,-4.68 -2.42,-3.15 -4.53,-4.68 -6.25,-4.68 -1.12,0 -2.08,0.49 -2.86,1.5 -0.78,0.99 -1.19,2.18 -1.19,3.54 0,1.56 0.56,3.17 1.62,4.85 1.06,1.68 2.54,3.11 4.36,4.32 1.55,1.05 2.8,1.56 3.77,1.56 1.17,0 1.77,-0.81 1.77,-2.45 0,-1.28 -0.37,-2.56 -1.1,-3.85 -0.73,-1.29 -1.48,-1.92 -2.22,-1.92 -0.71,0 -1.07,0.42 -1.07,1.25 0,0.98 0.75,1.89 2.19,2.73 1.12,0.66 1.7,1.51 1.7,2.57 0,0.84 -0.38,1.25 -1.17,1.25 -1.31,0 -2.96,-1.51 -4.87,-4.59 -1.9,-3.09 -2.88,-5.63 -2.88,-7.72 0,-1.76 0.69,-2.62 2.1,-2.62 2.19,0 5.23,2.86 8.92,8.66 0.21,0.31 0.36,0.45 0.45,0.45 0.07,-0.03 0.1,-0.09 0.1,-0.17 z"
         style="fill:#002060;fill-opacity:1;fill-rule:evenodd;stroke:none"
         transform="matrix(1.3333333,0,0,-1.3333333,0,1122.56)" />
      <path
         id="path135"
         d="m 150.36,770.67 c 0,-0.14 -0.07,-0.31 -0.24,-0.5 -0.33,-0.55 -0.68,-1.1 -1.02,-1.65 -2.94,-4.87 -5.23,-7.27 -6.68,-7.27 -0.77,0 -1.39,0.3 -1.86,0.97 -0.5,0.65 -0.74,1.42 -0.74,2.4 0,1.31 0.61,3 1.81,5.1 1.86,3.28 2.84,5.18 2.84,5.8 0,0.72 -0.33,1.08 -0.98,1.08 -0.95,0 -2.29,-1.07 -3.91,-3.28 -1.58,-2.11 -3.82,-6.06 -6.56,-11.93 -0.48,0.11 -0.89,0.16 -1.22,0.16 -0.36,0 -0.81,-0.05 -1.41,-0.16 1.15,2.48 2.36,4.93 3.51,7.41 0.47,1.06 1.23,2.61 2.2,4.68 0.51,1.01 2.19,4.19 4.84,9.59 1.19,2.41 2.44,4.78 3.63,7.19 0.47,-0.12 0.88,-0.17 1.21,-0.17 0.65,0 1.24,0.08 1.82,0.28 -1.62,-3.11 -4.18,-7.72 -7.4,-13.93 -0.09,-0.2 -1.37,-2.58 -3.7,-7.19 2.94,5.2 5.35,7.77 7.09,7.77 0.69,0 1.27,-0.33 1.76,-1.03 0.47,-0.7 0.72,-1.53 0.72,-2.51 0,-1.28 -0.71,-3.11 -2.1,-5.54 -1.53,-2.72 -2.34,-4.38 -2.34,-5.08 0,-0.8 0.33,-1.19 1.03,-1.19 1.24,0 3.33,2.31 6.15,7.02 0.25,0.4 0.5,0.8 0.74,1.2 0.14,0.2 0.29,0.41 0.43,0.61 0.07,0.2 0.17,0.28 0.29,0.28 0.07,0 0.09,-0.03 0.09,-0.11 z"
         style="fill:#002060;fill-opacity:1;fill-rule:evenodd;stroke:none"
         transform="matrix(1.3333333,0,0,-1.3333333,0,1122.56)" />
      <path
         id="path136"
         d="m 162.44,770.58 c 0,-0.05 -0.15,-0.3 -0.43,-0.72 -0.34,-0.51 -0.69,-1 -1.03,-1.51 -3.25,-4.76 -6.11,-7.1 -8.47,-7.1 -1.12,0 -2.06,0.46 -2.79,1.42 -0.75,0.93 -1.15,2.09 -1.15,3.51 0,3.35 2.03,6.26 5.99,8.84 2.09,1.35 3.82,2 5.13,2 0.58,0 1.08,-0.19 1.48,-0.58 0.4,-0.43 0.6,-0.9 0.6,-1.48 0,-1.34 -0.75,-2.47 -2.24,-3.4 -1.5,-0.96 -3.99,-1.82 -7.5,-2.65 -1.05,-1.93 -1.62,-3.51 -1.62,-4.79 0,-1.59 0.74,-2.4 2.22,-2.4 2.51,0 5.64,2.84 9.23,8.58 0.19,0.31 0.36,0.45 0.48,0.45 0.07,-0.03 0.1,-0.08 0.1,-0.17 z m -2.01,5.19 c 0,0.58 -0.28,0.89 -0.83,0.89 -0.84,0 -1.97,-0.66 -3.32,-2.04 -1.37,-1.37 -2.76,-3.13 -4.06,-5.32 2.29,0.71 4.24,1.66 5.83,2.93 1.58,1.27 2.38,2.42 2.38,3.54 z"
         style="fill:#002060;fill-opacity:1;fill-rule:evenodd;stroke:none"
         transform="matrix(1.3333333,0,0,-1.3333333,0,1122.56)" />
      <path
         id="path137"
         d="m 171.24,777.02 c -0.06,-0.14 -0.13,-0.28 -0.19,-0.42 -1.04,0 -2.08,0 -3.13,0 -1.74,-3.55 -3.57,-7.06 -5.32,-10.61 -0.63,-1.29 -0.97,-2.32 -0.97,-3.07 0,-0.84 0.38,-1.25 1.12,-1.25 1.45,0 3.94,2.92 7.32,8.83 0.12,0.2 0.22,0.28 0.29,0.28 0.09,0 0.14,-0.06 0.14,-0.17 -0.02,-0.05 -0.1,-0.19 -0.24,-0.44 -0.33,-0.55 -0.69,-1.1 -1.02,-1.65 -2.94,-4.87 -5.25,-7.27 -6.76,-7.27 -0.74,0 -1.36,0.3 -1.86,0.95 -0.49,0.64 -0.76,1.42 -0.76,2.36 0,1.12 0.44,2.51 1.26,4.18 1.32,2.63 2.7,5.23 4.01,7.86 -0.81,0 -1.62,0 -2.43,0 0.08,0.14 0.16,0.28 0.24,0.42 0.79,0 1.59,0 2.38,0 0.92,1.81 1.88,3.6 2.8,5.41 0.47,-0.14 0.93,-0.23 1.36,-0.23 0.45,0 0.9,0.09 1.38,0.23 -0.9,-1.81 -1.84,-3.6 -2.74,-5.41 1.04,0 2.08,0 3.12,0 z"
         style="fill:#002060;fill-opacity:1;fill-rule:evenodd;stroke:none"
         transform="matrix(1.3333333,0,0,-1.3333333,0,1122.56)" />
      <path
         id="path138"
         d="m 179.31,777.02 c -0.07,-0.14 -0.13,-0.28 -0.2,-0.42 -1.04,0 -2.08,0 -3.12,0 -1.75,-3.55 -3.58,-7.06 -5.32,-10.61 -0.64,-1.29 -0.98,-2.32 -0.98,-3.07 0,-0.84 0.38,-1.25 1.12,-1.25 1.46,0 3.94,2.92 7.33,8.83 0.11,0.2 0.21,0.28 0.28,0.28 0.1,0 0.15,-0.06 0.15,-0.17 -0.03,-0.05 -0.1,-0.19 -0.24,-0.44 -0.34,-0.55 -0.69,-1.1 -1.03,-1.65 -2.94,-4.87 -5.25,-7.27 -6.75,-7.27 -0.74,0 -1.37,0.3 -1.86,0.95 -0.5,0.64 -0.77,1.42 -0.77,2.36 0,1.12 0.45,2.51 1.27,4.18 1.31,2.63 2.69,5.23 4.01,7.86 -0.81,0 -1.63,0 -2.44,0 0.08,0.14 0.16,0.28 0.24,0.42 0.8,0 1.59,0 2.39,0 0.91,1.81 1.87,3.6 2.79,5.41 0.48,-0.14 0.93,-0.23 1.36,-0.23 0.45,0 0.91,0.09 1.38,0.23 -0.9,-1.81 -1.84,-3.6 -2.74,-5.41 1.04,0 2.08,0 3.13,0 z"
         style="fill:#002060;fill-opacity:1;fill-rule:evenodd;stroke:none"
         transform="matrix(1.3333333,0,0,-1.3333333,0,1122.56)" />
      <path
         id="path139"
         d="m 186.39,782.15 c 0,-0.64 -0.24,-1.25 -0.69,-1.81 -0.47,-0.59 -1,-0.87 -1.55,-0.87 -0.72,0 -1.07,0.42 -1.07,1.26 0,0.61 0.24,1.19 0.73,1.78 0.5,0.56 1.01,0.84 1.56,0.84 0.69,0 1.02,-0.39 1.02,-1.2 z m 0.34,-11.54 c -0.03,-0.05 -0.1,-0.19 -0.24,-0.44 -0.34,-0.55 -0.69,-1.1 -1.03,-1.65 -2.94,-4.87 -5.27,-7.27 -6.85,-7.27 -0.74,0 -1.36,0.3 -1.86,0.95 -0.49,0.61 -0.76,1.39 -0.76,2.31 0,1.09 0.56,2.69 1.65,4.9 1.22,2.47 2.5,4.92 3.72,7.39 0.5,-0.14 0.88,-0.2 1.17,-0.2 0.43,0 1.02,0.06 1.81,0.2 -1.78,-3.48 -3.64,-6.92 -5.42,-10.4 -0.77,-1.51 -1.17,-2.67 -1.17,-3.48 0,-0.84 0.39,-1.25 1.13,-1.25 1.4,0 3.96,2.92 7.46,8.83 0.07,0.2 0.17,0.28 0.24,0.28 0.1,0 0.15,-0.06 0.15,-0.17 z"
         style="fill:#002060;fill-opacity:1;fill-rule:evenodd;stroke:none"
         transform="matrix(1.3333333,0,0,-1.3333333,0,1122.56)" />
    </g>
    <g
       id="g139"
       transform="matrix(0.26458333,0,0,0.26458333,-18.439004,-11.775802)">
      <path
         id="path140"
         d="m 117.2,752.45 c -5.41,-4.28 -10.69,-6.37 -15.66,-6.37 -2.617,0 -5.512,0.6 -8.549,1.86 -1.385,0.51 -4.077,1.77 -8.067,3.83 -3.298,1.78 -6.042,2.87 -8.122,3.5 -4.142,-2.8 -7.694,-4.18 -10.526,-4.18 -2.351,0 -3.526,0.79 -3.526,2.32 0,1.29 0.913,2.24 2.778,2.93 1.332,0.52 2.725,0.73 4.221,0.73 2.19,0 4.6,-0.38 7.32,-1.24 2.919,2.12 6.072,4.76 9.244,8.18 1.744,1.88 4.532,4.92 8.228,9.36 -0.783,-0.08 -1.567,-0.15 -2.351,-0.23 -5.649,-6.82 -12.344,-10.47 -19.877,-11.22 1.601,0.52 3.21,1.06 4.81,1.58 1.705,0.69 3.215,1.45 4.434,2.42 -1.546,-0.53 -3.102,-1.04 -4.648,-1.57 6.803,4.12 12.948,9.81 18.059,17.42 -0.498,0.02 -0.996,0.04 -1.496,0.05 -1.738,-2.55 -2.944,-4.11 -3.419,-4.73 -1.583,-2.1 -2.892,-3.49 -3.9,-4.23 -0.531,-0.4 -1.285,-0.73 -2.298,-1.07 1.435,0.86 2.96,2.35 4.595,4.57 1.211,1.87 2.529,3.65 3.794,5.46 -0.321,0 -0.642,0 -0.962,0 -4.534,-6.41 -7.912,-9.91 -9.992,-10.6 2.913,2.57 6.135,6.06 9.351,10.66 -1.122,0 -2.244,0 -3.366,0 0.584,0.35 1.335,0.51 2.244,0.51 0.427,0 0.909,-0.06 1.389,-0.17 1.001,1.53 1.991,2.98 2.992,4.51 1.317,1.99 2.569,3.15 3.58,3.67 -0.528,-0.69 -2.557,-3.36 -5.931,-8.18 0.321,0 0.641,0 0.962,0 1.581,2.27 3.227,4.5 4.756,6.77 2.004,2.55 4.063,4.21 6.093,5.07 -2.28,-2.22 -5.508,-6.11 -9.567,-11.84 0.481,0 0.962,0 1.442,0 2.637,3.8 4.501,6.25 5.395,7.44 2.38,3.07 4.55,5.12 6.47,6.26 -2.94,-0.29 -5.93,-0.5 -8.872,-0.79 -3.257,-0.57 -5.469,-2.36 -6.465,-5.35 -1.529,-0.54 -3.067,-1.05 -4.595,-1.58 0.997,2.99 2.265,5.57 3.686,7.83 1.546,0.56 3.103,1.08 4.649,1.64 -0.561,-1.04 -1.149,-2.06 -1.71,-3.1 2.294,0.74 5.132,1.34 8.547,1.86 2.94,0.4 5.83,0.72 8.77,1.13 0.15,0.37 0.32,0.75 0.48,1.12 -0.37,1.42 -1.4,2.53 -3,3.33 -1.33,0.69 -2.83,1.02 -4.38,1.02 -1.12,0 -2.08,-0.17 -2.94,-0.57 -1.11,-0.51 -1.653,-1.24 -1.653,-2.31 0,-0.85 0.267,-1.24 0.803,-1.24 0.59,0 1.07,0.28 1.44,0.85 -0.26,-0.85 -0.75,-1.3 -1.49,-1.3 -0.966,0 -1.447,0.45 -1.447,1.35 0,1.19 0.646,2.13 1.927,2.82 1.01,0.52 2.13,0.79 3.42,0.79 1.65,0 3.26,-0.33 4.7,-1.07 1.75,-0.8 2.84,-1.92 3.2,-3.44 1.35,0.5 2.71,0.97 4.06,1.47 -0.78,-1.98 -2,-4.9 -3.52,-8.91 -0.62,-0.21 -1.25,-0.41 -1.87,-0.62 -1.52,-4.58 -3.13,-9.13 -4.65,-13.7 -2.05,-6.5 -3.15,-10.94 -3.15,-13.26 0.78,0.29 1.57,0.56 2.35,0.85 0.58,-1.47 0.91,-2.31 1.07,-2.54 0.58,-0.96 1.28,-1.41 2.13,-1.41 0.27,0 0.59,0 0.91,0 0,-0.05 0,-0.11 0,-0.17 -0.9,-0.34 -1.82,-0.61 -2.67,-0.9 -1.07,-0.4 -1.98,-0.56 -2.72,-0.56 -0.59,0 -1.13,0.11 -1.61,0.39 -0.85,-0.46 -1.55,-0.67 -2.13,-0.67 -1.234,0 -1.875,1.07 -1.875,3.15 0,2.77 0.942,6.76 2.775,11.9 -1.652,-0.29 -3.683,-0.45 -6.088,-0.56 -3.643,-4.38 -6.485,-7.43 -8.335,-9.42 -3.225,-3.42 -6.378,-6.12 -9.404,-8.23 2.4,-0.75 4.928,-1.78 7.428,-3.22 2.392,-1.31 4.767,-2.62 7.105,-4 2.609,-1.26 5.237,-1.86 7.855,-1.86 5.449,0 11.259,1.86 17.369,5.81 z m -16.25,3.61 c -0.09,0 -0.17,0 -0.26,0 -1.5,-0.06 -2.742,0.61 -3.691,1.97 -0.843,1.25 -1.283,2.71 -1.283,4.34 0,1.58 0.436,2.76 1.337,3.55 -0.421,-1.07 -0.641,-2.19 -0.641,-3.38 0,-3.66 1.498,-5.85 4.538,-6.48 z m 6.74,37.77 c -2.07,-2.27 -4.69,-5.49 -7.65,-9.86 -3.421,-5.05 -5.89,-8.39 -7.262,-10.1 0.587,0.06 1.39,0.17 2.511,0.34 3.327,3.93 5.791,6.92 7.211,9.14 2.22,3.34 3.98,6.81 5.19,10.48 z m -2.2,-6.99 c -1.47,-2.66 -4.7,-6.72 -9.506,-12.4 3.044,0.52 4.966,0.73 5.716,0.73 0.84,2.43 2.17,6.31 3.79,11.67 z M 76.482,755.38 c -2.934,0.92 -5.451,1.35 -7.534,1.35 -1.283,0 -2.407,-0.16 -3.42,-0.56 -1.386,-0.52 -2.083,-1.35 -2.083,-2.42 0,-0.85 0.377,-1.46 1.175,-1.92 0.691,-0.4 1.442,-0.57 2.244,-0.57 2.297,0 5.529,1.32 9.618,4.12 z"
         style="fill:#b2b2b2;fill-opacity:0.8;fill-rule:evenodd;stroke:none"
         transform="matrix(1.3333333,0,0,-1.3333333,0,1122.56)" />
      <path
         id="path141"
         d="m 114.2,754.45 c -5.41,-4.28 -10.69,-6.37 -15.659,-6.37 -2.618,0 -5.513,0.6 -8.55,1.86 -1.385,0.51 -4.077,1.77 -8.067,3.83 -3.298,1.78 -6.042,2.87 -8.122,3.5 -4.142,-2.8 -7.694,-4.18 -10.526,-4.18 -2.351,0 -3.526,0.79 -3.526,2.32 0,1.29 0.913,2.24 2.778,2.93 1.332,0.52 2.725,0.73 4.221,0.73 2.19,0 4.6,-0.38 7.32,-1.24 2.919,2.12 6.072,4.76 9.244,8.18 1.744,1.88 4.532,4.92 8.228,9.36 -0.783,-0.08 -1.567,-0.15 -2.351,-0.23 -5.649,-6.82 -12.344,-10.47 -19.877,-11.22 1.601,0.52 3.21,1.06 4.81,1.58 1.705,0.69 3.215,1.45 4.434,2.42 -1.546,-0.53 -3.102,-1.04 -4.648,-1.57 6.803,4.12 12.948,9.81 18.059,17.42 -0.498,0.02 -0.996,0.04 -1.496,0.05 -1.738,-2.55 -2.944,-4.11 -3.419,-4.73 -1.583,-2.1 -2.892,-3.49 -3.9,-4.23 -0.531,-0.4 -1.285,-0.73 -2.298,-1.07 1.435,0.86 2.96,2.35 4.595,4.57 1.211,1.87 2.529,3.65 3.793,5.46 -0.32,0 -0.641,0 -0.961,0 -4.534,-6.41 -7.912,-9.91 -9.992,-10.6 2.913,2.57 6.135,6.06 9.351,10.66 -1.122,0 -2.244,0 -3.366,0 0.584,0.35 1.335,0.51 2.244,0.51 0.427,0 0.909,-0.06 1.389,-0.17 1.001,1.53 1.991,2.98 2.992,4.51 1.317,1.99 2.569,3.15 3.58,3.67 -0.528,-0.69 -2.557,-3.36 -5.931,-8.18 0.321,0 0.641,0 0.962,0 1.581,2.27 3.227,4.5 4.756,6.77 2.004,2.55 4.066,4.21 6.093,5.07 -2.278,-2.22 -5.508,-6.11 -9.567,-11.84 0.481,0 0.962,0 1.442,0 2.637,3.8 4.501,6.25 5.397,7.44 2.378,3.07 4.548,5.12 6.468,6.26 -2.94,-0.29 -5.934,-0.5 -8.872,-0.79 -3.257,-0.57 -5.469,-2.36 -6.465,-5.35 -1.529,-0.54 -3.067,-1.05 -4.595,-1.58 0.997,2.99 2.265,5.57 3.686,7.83 1.546,0.56 3.103,1.08 4.649,1.64 -0.561,-1.04 -1.149,-2.06 -1.71,-3.1 2.294,0.74 5.132,1.34 8.549,1.86 2.938,0.4 5.828,0.72 8.768,1.13 0.15,0.37 0.32,0.75 0.48,1.12 -0.37,1.42 -1.4,2.53 -3,3.33 -1.33,0.69 -2.83,1.02 -4.38,1.02 -1.12,0 -2.084,-0.17 -2.936,-0.57 -1.119,-0.51 -1.657,-1.24 -1.657,-2.31 0,-0.85 0.267,-1.24 0.802,-1.24 0.587,0 1.074,0.28 1.442,0.85 -0.262,-0.85 -0.748,-1.3 -1.496,-1.3 -0.961,0 -1.442,0.45 -1.442,1.35 0,1.19 0.646,2.13 1.923,2.82 1.011,0.52 2.137,0.79 3.424,0.79 1.65,0 3.26,-0.33 4.7,-1.07 1.75,-0.8 2.84,-1.92 3.2,-3.44 1.35,0.5 2.71,0.97 4.06,1.47 -0.78,-1.98 -2,-4.9 -3.52,-8.91 -0.62,-0.21 -1.25,-0.41 -1.87,-0.62 -1.52,-4.58 -3.13,-9.13 -4.65,-13.7 -2.05,-6.5 -3.15,-10.94 -3.15,-13.26 0.78,0.29 1.57,0.56 2.35,0.85 0.58,-1.47 0.91,-2.31 1.07,-2.54 0.58,-0.96 1.28,-1.41 2.13,-1.41 0.27,0 0.59,0 0.91,0 0,-0.05 0,-0.11 0,-0.17 -0.9,-0.34 -1.82,-0.61 -2.67,-0.9 -1.07,-0.4 -1.98,-0.56 -2.72,-0.56 -0.59,0 -1.129,0.11 -1.608,0.39 -0.851,-0.46 -1.549,-0.67 -2.137,-0.67 -1.229,0 -1.87,1.07 -1.87,3.15 0,2.77 0.942,6.76 2.779,11.9 -1.656,-0.29 -3.687,-0.45 -6.092,-0.56 -3.643,-4.38 -6.485,-7.43 -8.335,-9.42 -3.225,-3.42 -6.378,-6.12 -9.404,-8.23 2.4,-0.75 4.928,-1.78 7.428,-3.22 2.392,-1.31 4.767,-2.62 7.105,-4 2.609,-1.26 5.237,-1.86 7.855,-1.86 5.449,0 11.259,1.86 17.369,5.81 z m -16.247,3.61 c -0.089,0 -0.178,0 -0.267,0 -1.496,-0.06 -2.738,0.61 -3.687,1.97 -0.843,1.25 -1.283,2.71 -1.283,4.34 0,1.58 0.436,2.76 1.337,3.55 -0.421,-1.07 -0.641,-2.19 -0.641,-3.38 0,-3.66 1.498,-5.85 4.541,-6.48 z m 6.737,37.77 c -2.07,-2.27 -4.695,-5.49 -7.645,-9.86 -3.426,-5.05 -5.895,-8.39 -7.267,-10.1 0.587,0.06 1.39,0.17 2.511,0.34 3.327,3.93 5.791,6.92 7.213,9.14 2.218,3.34 3.978,6.81 5.188,10.48 z m -2.2,-6.99 c -1.47,-2.66 -4.701,-6.72 -9.506,-12.4 3.044,0.52 4.969,0.73 5.717,0.73 0.84,2.43 2.169,6.31 3.789,11.67 z M 73.482,757.38 c -2.934,0.92 -5.451,1.35 -7.534,1.35 -1.283,0 -2.407,-0.16 -3.42,-0.56 -1.386,-0.52 -2.083,-1.35 -2.083,-2.42 0,-0.85 0.377,-1.46 1.175,-1.92 0.691,-0.4 1.442,-0.57 2.244,-0.57 2.297,0 5.529,1.32 9.618,4.12 z"
         style="fill:#002060;fill-opacity:1;fill-rule:evenodd;stroke:none"
         transform="matrix(1.3333333,0,0,-1.3333333,0,1122.56)" />
    </g>
    <g
       id="g141"
       transform="matrix(0.26458333,0,0,0.26458333,-18.439004,-11.775802)">
      <path
         id="path142"
         d="m 61.613,710.03 c 0.525,3.96 1.113,7.47 1.696,10.53 0.578,3.07 1.252,5.82 1.946,8.29 -0.931,-1.49 -2.155,-4.94 -3.559,-10.36 -0.076,-0.3 -0.159,-0.59 -0.237,-0.88 0.074,-0.89 0.129,-1.75 0.163,-2.57 0.033,-0.82 0.048,-1.62 0.048,-2.37 0,-0.44 -0.004,-0.88 -0.015,-1.32 -0.008,-0.43 -0.023,-0.89 -0.042,-1.32 z m -2.459,-0.41 c 0.323,1 0.666,2.13 0.998,3.41 0.332,1.28 0.721,2.81 1.131,4.62 -0.169,1.47 -0.414,2.6 -0.712,3.41 -0.301,0.8 -0.65,1.2 -1.035,1.2 -0.442,0 -0.81,-0.52 -1.095,-1.59 -0.286,-1.07 -0.434,-2.43 -0.434,-4.07 0,-1.36 0.104,-2.64 0.292,-3.81 0.186,-1.17 0.482,-2.24 0.855,-3.17 z m 0.133,-0.28 c 0.309,-0.66 0.632,-1.18 0.943,-1.55 0.307,-0.37 0.63,-0.61 0.95,-0.7 0.11,0.87 0.203,1.82 0.26,2.81 0.053,1 0.084,2.1 0.084,3.31 0,0.63 -0.017,1.26 -0.044,1.9 -0.034,0.63 -0.085,1.29 -0.148,1.99 -0.066,-0.27 -0.135,-0.54 -0.201,-0.82 -0.768,-3.22 -1.404,-5.52 -1.844,-6.94 z m -0.108,-0.4 c -0.489,-1.59 -0.975,-2.76 -1.413,-3.51 -0.44,-0.76 -0.88,-1.14 -1.307,-1.14 -0.427,0 -0.782,0.37 -1.047,1.12 -0.27,0.75 -0.412,1.68 -0.412,2.78 0,0.73 0.055,1.35 0.157,1.82 0.101,0.47 0.23,0.71 0.382,0.71 0.119,0 0.224,-0.14 0.305,-0.43 0.082,-0.3 0.129,-0.67 0.129,-1.1 0,-0.68 -0.091,-1.16 -0.267,-1.45 -0.173,-0.3 -0.264,-0.49 -0.264,-0.61 0,-0.57 0.112,-1.07 0.324,-1.51 0.213,-0.46 0.471,-0.68 0.763,-0.68 0.417,0 0.842,0.36 1.252,1.08 0.412,0.72 0.844,1.8 1.254,3.25 -0.463,1.25 -0.835,2.56 -1.072,3.92 -0.241,1.36 -0.368,2.73 -0.368,4.09 0,1.68 0.169,3.09 0.493,4.23 0.317,1.14 0.721,1.71 1.199,1.71 0.457,0 0.871,-0.43 1.229,-1.33 0.357,-0.89 0.657,-2.16 0.875,-3.83 0.844,3.44 1.715,6.24 2.517,8.43 0.801,2.19 1.372,3.29 1.662,3.29 0.025,0 0.045,0 0.049,-0.02 0.006,-0.02 0.01,-0.05 0.01,-0.09 0,-0.05 -0.169,-0.82 -0.486,-2.31 -0.319,-1.48 -0.645,-3.09 -0.943,-4.82 -0.334,-1.91 -0.696,-4.12 -1.054,-6.64 -0.357,-2.54 -0.761,-5.47 -1.169,-8.81 0.569,0.18 1.079,0.94 1.508,2.32 0.082,0.27 0.133,0.39 0.152,0.39 0.006,0 0.011,-0.02 0.015,-0.04 0.006,-0.03 0.006,-0.07 0.006,-0.1 0,-0.21 -0.046,-0.47 -0.133,-0.79 -0.091,-0.31 -0.224,-0.64 -0.383,-0.99 -0.184,-0.41 -0.387,-0.72 -0.586,-0.95 -0.205,-0.23 -0.418,-0.35 -0.638,-0.38 -0.051,-0.41 -0.104,-0.82 -0.153,-1.22 -0.044,-0.37 -0.09,-0.6 -0.122,-0.72 -0.034,-0.12 -0.081,-0.19 -0.129,-0.21 -0.159,-0.06 -0.317,-0.12 -0.476,-0.18 -0.023,0 -0.047,0 -0.07,0 -0.019,0 -0.04,0.02 -0.055,0.07 -0.013,0.06 -0.023,0.11 -0.023,0.18 0,0.07 0.015,0.23 0.038,0.49 0.004,0.03 0.008,0.05 0.011,0.08 0.061,0.55 0.126,1.1 0.186,1.65 -0.328,0.11 -0.658,0.34 -0.984,0.73 -0.325,0.37 -0.653,0.87 -0.962,1.52 z"
         style="fill:#002060;fill-opacity:1;fill-rule:evenodd;stroke:none"
         transform="matrix(1.3333333,0,0,-1.3333333,0,1122.56)" />
      <path
         id="path143"
         d="m 64.927,702.97 c -0.721,-1.51 -1.307,-2.97 -1.702,-4.43 -0.396,-1.43 -0.605,-2.67 -0.605,-3.74 0,-0.4 0.025,-0.7 0.074,-0.91 0.049,-0.19 0.123,-0.29 0.216,-0.29 0.251,0 0.537,0.71 0.846,2.16 0.308,1.46 0.712,3.87 1.171,7.21 z m -0.886,3 c 0,-0.33 0.021,-0.61 0.064,-0.8 0.044,-0.2 0.103,-0.3 0.177,-0.3 0.114,0 0.254,0.19 0.419,0.59 0.159,0.41 0.336,0.95 0.516,1.67 0.264,1.06 0.484,2.09 0.634,3.11 0.144,0.99 0.22,1.87 0.22,2.6 0,0.31 -0.029,0.58 -0.093,0.8 -0.063,0.21 -0.141,0.32 -0.234,0.32 -0.163,0 -0.349,-0.25 -0.538,-0.75 -0.188,-0.51 -0.387,-1.23 -0.575,-2.15 -0.178,-0.93 -0.332,-1.84 -0.431,-2.77 -0.102,-0.92 -0.159,-1.69 -0.159,-2.32 z m 2.153,6.08 c 0.135,0.72 0.279,1.44 0.415,2.15 0.205,0.05 0.41,0.1 0.613,0.14 -0.298,-1.76 -0.594,-3.47 -0.861,-5.15 -0.264,-1.7 -0.52,-3.31 -0.742,-4.86 0.412,0.96 0.799,2.06 1.131,3.3 0.328,1.24 0.501,1.85 0.501,1.85 0.015,0 0.03,-0.01 0.041,-0.05 0.004,-0.03 0.01,-0.07 0.01,-0.12 0,-0.33 -0.19,-1.12 -0.552,-2.36 -0.361,-1.26 -0.803,-2.41 -1.273,-3.44 -0.482,-3.34 -0.973,-5.91 -1.421,-7.71 -0.448,-1.8 -0.855,-2.71 -1.195,-2.71 -0.167,0 -0.296,0.16 -0.383,0.45 -0.082,0.3 -0.129,0.75 -0.129,1.33 0,1.16 0.216,2.41 0.616,3.78 0.399,1.36 1.116,3.05 2.07,5.07 0.169,1.31 0.347,2.62 0.516,3.93 -0.285,-1.21 -0.55,-2.06 -0.757,-2.61 -0.207,-0.54 -0.412,-0.82 -0.594,-0.82 -0.184,0 -0.324,0.34 -0.423,0.98 -0.102,0.65 -0.159,1.54 -0.159,2.68 0,0.27 0.006,0.56 0.019,0.84 0.011,0.27 0.026,0.55 0.045,0.82 -0.039,-0.23 -0.079,-0.39 -0.113,-0.51 -0.033,-0.12 -0.069,-0.19 -0.093,-0.19 -0.025,0 -0.04,0.01 -0.05,0.03 -0.005,0.02 -0.009,0.05 -0.009,0.11 0,0.08 0.047,0.31 0.127,0.68 0.083,0.37 0.205,0.8 0.345,1.33 0.309,1.12 0.634,1.99 0.949,2.6 0.309,0.62 0.605,0.91 0.865,0.91 0.163,0 0.292,-0.16 0.389,-0.45 0.091,-0.3 0.142,-0.7 0.142,-1.21 0,-0.12 -0.004,-0.24 -0.01,-0.37 -0.005,-0.12 -0.015,-0.26 -0.03,-0.42 z"
         style="fill:#002060;fill-opacity:1;fill-rule:evenodd;stroke:none"
         transform="matrix(1.3333333,0,0,-1.3333333,0,1122.56)" />
      <path
         id="path144"
         d="m 67.96,708.4 c 0.444,0.35 0.842,1.03 1.155,2.06 0.315,1.04 0.482,1.99 0.482,2.89 0,0.19 -0.015,0.36 -0.049,0.5 -0.034,0.14 -0.078,0.21 -0.127,0.21 -0.222,0 -0.484,-0.54 -0.772,-1.64 -0.289,-1.1 -0.53,-2.43 -0.689,-4.02 z m -0.546,1.19 c -0.053,-0.26 -0.099,-0.44 -0.133,-0.54 -0.034,-0.13 -0.063,-0.18 -0.089,-0.18 -0.015,0 -0.029,0.02 -0.038,0.04 -0.004,0.01 -0.01,0.05 -0.01,0.1 0,0.09 0.036,0.28 0.103,0.6 0.068,0.29 0.169,0.7 0.29,1.17 0.304,1.2 0.626,2.11 0.939,2.76 0.311,0.65 0.615,0.96 0.901,0.96 0.167,0 0.3,-0.16 0.402,-0.45 0.101,-0.32 0.152,-0.72 0.152,-1.21 0,-1 -0.188,-1.94 -0.55,-2.87 -0.362,-0.92 -0.865,-1.62 -1.474,-2.13 -0.021,-0.44 -0.036,-0.75 -0.04,-0.94 -0.004,-0.2 -0.011,-0.37 -0.011,-0.49 0,-0.53 0.036,-0.93 0.108,-1.23 0.068,-0.29 0.167,-0.43 0.296,-0.43 0.172,0 0.358,0.21 0.546,0.61 0.188,0.4 0.427,1.07 0.694,2.01 0.11,0.4 0.232,0.85 0.359,1.36 0.121,0.51 0.201,0.75 0.224,0.75 0.015,0 0.032,-0.01 0.045,-0.05 0.01,-0.03 0.014,-0.07 0.014,-0.12 0,-0.11 -0.029,-0.3 -0.093,-0.56 -0.061,-0.26 -0.205,-0.8 -0.416,-1.59 -0.29,-1.05 -0.561,-1.8 -0.778,-2.26 -0.218,-0.45 -0.438,-0.68 -0.643,-0.68 -0.252,0 -0.457,0.37 -0.616,1.11 -0.158,0.71 -0.241,1.64 -0.241,2.76 0,0.22 0.006,0.47 0.015,0.73 0.01,0.24 0.025,0.51 0.044,0.77 z"
         style="fill:#002060;fill-opacity:1;fill-rule:evenodd;stroke:none"
         transform="matrix(1.3333333,0,0,-1.3333333,0,1122.56)" />
      <path
         id="path145"
         d="m 70.183,704.36 c 0.427,2.33 0.879,4.65 1.307,6.98 0.014,0.08 0.036,0.19 0.065,0.33 0.167,0.89 0.256,1.5 0.256,1.82 0,0.15 -0.01,0.28 -0.03,0.36 -0.025,0.07 -0.059,0.11 -0.109,0.11 -0.108,0 -0.248,-0.25 -0.417,-0.74 -0.169,-0.49 -0.434,-1.36 -0.764,-2.64 -0.065,-0.26 -0.152,-0.59 -0.245,-0.99 -0.11,-0.51 -0.19,-0.75 -0.226,-0.75 -0.015,0 -0.023,0.01 -0.034,0.05 -0.011,0.02 -0.015,0.05 -0.015,0.09 0,0.08 0.015,0.22 0.045,0.38 0.033,0.16 0.095,0.44 0.186,0.81 0.105,0.41 0.215,0.82 0.319,1.24 0.319,1.24 0.573,2.06 0.738,2.5 0.161,0.42 0.315,0.63 0.453,0.63 0.122,0 0.218,-0.16 0.289,-0.46 0.068,-0.3 0.104,-0.72 0.104,-1.24 0,-0.54 -0.032,-1.12 -0.093,-1.73 -0.063,-0.61 -0.169,-1.33 -0.311,-2.13 0.503,2.04 0.912,3.47 1.18,4.3 0.267,0.82 0.493,1.22 0.656,1.22 0.112,0 0.207,-0.16 0.275,-0.47 0.067,-0.32 0.103,-0.74 0.103,-1.26 0,-0.89 -0.173,-2.15 -0.497,-3.76 -0.052,-0.26 -0.099,-0.47 -0.122,-0.61 -0.18,-0.89 -0.307,-1.54 -0.37,-1.96 -0.062,-0.43 -0.098,-0.78 -0.098,-1.04 0,-0.22 0.015,-0.37 0.038,-0.48 0.026,-0.12 0.07,-0.17 0.125,-0.17 0.083,0 0.224,0.26 0.408,0.78 0.182,0.53 0.417,1.28 0.677,2.28 0.078,0.28 0.169,0.62 0.271,1.04 0.101,0.43 0.167,0.63 0.192,0.63 0.015,0 0.03,-0.01 0.045,-0.05 0.014,-0.05 0.019,-0.09 0.019,-0.12 0,-0.19 -0.153,-0.8 -0.438,-1.87 -0.019,-0.07 -0.04,-0.14 -0.059,-0.21 -0.275,-1.02 -0.514,-1.77 -0.698,-2.26 -0.184,-0.5 -0.33,-0.75 -0.427,-0.75 -0.144,0 -0.263,0.23 -0.349,0.7 -0.087,0.48 -0.134,1.09 -0.134,1.84 0,0.54 0.041,1.12 0.123,1.71 0.078,0.59 0.256,1.48 0.522,2.69 0.034,0.16 0.089,0.39 0.153,0.67 0.188,0.85 0.289,1.41 0.289,1.69 0,0.16 -0.01,0.26 -0.025,0.32 -0.015,0.05 -0.044,0.08 -0.089,0.08 -0.156,0 -0.476,-0.83 -0.928,-2.5 -0.459,-1.66 -1.03,-3.92 -1.658,-6.81 -0.233,-0.09 -0.468,-0.16 -0.702,-0.25 z"
         style="fill:#002060;fill-opacity:1;fill-rule:evenodd;stroke:none"
         transform="matrix(1.3333333,0,0,-1.3333333,0,1122.56)" />
      <path
         id="path146"
         d="m 74.598,706.44 c 0.343,1.07 0.694,2.08 1.018,3.03 0.323,0.94 0.655,1.83 0.958,2.65 -0.161,-0.16 -0.29,-0.26 -0.387,-0.31 -0.098,-0.07 -0.188,-0.11 -0.267,-0.11 -0.118,0 -0.222,0.06 -0.308,0.18 -0.089,0.1 -0.174,0.28 -0.248,0.54 -0.216,-0.96 -0.431,-1.87 -0.617,-2.69 -0.015,-0.05 -0.022,-0.09 -0.026,-0.11 -0.051,-0.21 -0.106,-0.42 -0.156,-0.63 -0.015,-0.08 -0.032,-0.14 -0.045,-0.17 -0.015,-0.03 -0.029,-0.05 -0.04,-0.05 -0.015,0 -0.025,0.02 -0.034,0.03 -0.01,0.02 -0.015,0.05 -0.015,0.07 0,0.05 0,0.09 0,0.14 0,0.04 0,0.07 0,0.09 0.005,0.02 0.005,0.05 0.009,0.07 0.036,0.16 0.074,0.33 0.11,0.49 0.038,0.16 0.099,0.42 0.175,0.75 0.248,1.05 0.436,1.89 0.557,2.54 -0.015,0.13 -0.026,0.26 -0.03,0.36 -0.011,0.09 -0.015,0.18 -0.015,0.25 0,0.33 0.032,0.61 0.089,0.82 0.057,0.19 0.137,0.29 0.241,0.29 0.083,0 0.152,-0.06 0.201,-0.2 0.044,-0.16 0.07,-0.35 0.07,-0.58 0,-0.18 -0.017,-0.39 -0.04,-0.61 -0.024,-0.23 -0.041,-0.39 -0.041,-0.44 0,-0.17 0.032,-0.31 0.089,-0.42 0.053,-0.12 0.133,-0.17 0.237,-0.17 0.349,0 0.643,0.34 0.876,1.06 0.23,0.72 0.368,1.07 0.402,1.07 0.04,0 0.076,-0.04 0.099,-0.11 0.023,-0.08 0.04,-0.17 0.04,-0.28 0,-0.4 -0.123,-0.82 -0.359,-1.25 -0.049,-0.09 -0.089,-0.16 -0.115,-0.21 -0.304,-0.79 -0.609,-1.58 -0.894,-2.38 -0.286,-0.81 -0.58,-1.62 -0.846,-2.47 0.029,0.06 0.07,0.14 0.122,0.23 0.335,0.58 0.582,0.86 0.715,0.86 0.112,0 0.212,-0.12 0.284,-0.37 0.074,-0.26 0.11,-0.58 0.11,-0.96 0,-0.37 -0.036,-0.81 -0.104,-1.35 -0.072,-0.54 -0.108,-0.85 -0.108,-0.94 0,-0.11 0.004,-0.19 0.019,-0.28 0.015,-0.09 0.03,-0.12 0.049,-0.12 0.055,0 0.165,0.22 0.315,0.66 0.15,0.44 0.364,1.12 0.628,2.06 0.108,0.37 0.224,0.81 0.336,1.3 0.11,0.47 0.186,0.71 0.212,0.71 0.019,-0.01 0.034,-0.03 0.042,-0.05 0.011,-0.03 0.015,-0.07 0.015,-0.12 0,-0.12 -0.034,-0.33 -0.108,-0.63 -0.072,-0.32 -0.199,-0.79 -0.372,-1.42 -0.315,-1.15 -0.565,-1.93 -0.734,-2.37 -0.169,-0.44 -0.315,-0.67 -0.427,-0.67 -0.123,0 -0.222,0.18 -0.296,0.54 -0.072,0.35 -0.112,0.84 -0.112,1.46 0,0.26 0.014,0.57 0.04,0.91 0.023,0.33 0.038,0.54 0.038,0.64 0,0.04 -0.004,0.07 -0.015,0.11 -0.015,0.01 -0.03,0.03 -0.053,0.03 -0.11,0 -0.264,-0.14 -0.452,-0.42 -0.191,-0.3 -0.368,-0.64 -0.516,-1.05 -0.102,-0.29 -0.225,-0.71 -0.345,-1.29 -0.125,-0.58 -0.231,-0.86 -0.311,-0.86 -0.038,0 -0.074,0.04 -0.097,0.13 -0.026,0.07 -0.034,0.17 -0.034,0.29 0,0.3 0.036,0.58 0.108,0.84 0.072,0.26 0.199,0.56 0.363,0.89 z"
         style="fill:#002060;fill-opacity:1;fill-rule:evenodd;stroke:none"
         transform="matrix(1.3333333,0,0,-1.3333333,0,1122.56)" />
      <path
         id="path147"
         d="m 78.718,712.25 c -0.177,-0.65 -0.376,-1.38 -0.571,-2.17 -0.196,-0.81 -0.319,-1.21 -0.353,-1.21 -0.015,0 -0.025,0.02 -0.03,0.04 -0.004,0.01 -0.01,0.03 -0.01,0.07 0,0.15 0.118,0.68 0.336,1.59 0.216,0.91 0.544,2.11 0.943,3.6 0.241,0.06 0.483,0.11 0.724,0.17 -0.328,-1.86 -0.673,-3.71 -0.999,-5.57 -0.207,-1.21 -0.351,-2.01 -0.404,-2.41 -0.057,-0.41 -0.088,-0.74 -0.088,-0.96 0,-0.18 0.021,-0.34 0.055,-0.48 0.033,-0.14 0.074,-0.21 0.118,-0.21 0.123,0 0.277,0.25 0.457,0.72 0.178,0.47 0.427,1.27 0.723,2.41 0.053,0.23 0.129,0.51 0.216,0.86 0.129,0.52 0.211,0.78 0.245,0.78 0.015,0 0.03,-0.01 0.045,-0.05 0.01,-0.03 0.014,-0.07 0.014,-0.12 0,-0.11 -0.029,-0.28 -0.082,-0.52 -0.055,-0.25 -0.186,-0.74 -0.381,-1.46 -0.332,-1.22 -0.596,-2.04 -0.765,-2.46 -0.169,-0.44 -0.33,-0.65 -0.463,-0.65 -0.161,0 -0.297,0.21 -0.394,0.61 -0.101,0.41 -0.152,0.97 -0.152,1.65 0,0.91 0.241,2.6 0.698,5.1 0.053,0.3 0.095,0.51 0.118,0.67 z m 1.24,7.72 c 0,0.39 0.046,0.75 0.133,1.1 0.082,0.33 0.175,0.51 0.279,0.51 0.085,0 0.148,-0.09 0.197,-0.28 0.048,-0.19 0.074,-0.45 0.074,-0.75 0,-0.4 -0.041,-0.77 -0.123,-1.1 -0.082,-0.35 -0.171,-0.53 -0.275,-0.53 -0.085,0 -0.148,0.11 -0.201,0.3 -0.055,0.19 -0.084,0.45 -0.084,0.75 z"
         style="fill:#002060;fill-opacity:1;fill-rule:evenodd;stroke:none"
         transform="matrix(1.3333333,0,0,-1.3333333,0,1122.56)" />
      <path
         id="path148"
         d="m 80.588,705.97 c 0,-0.33 0.019,-0.61 0.063,-0.8 0.043,-0.2 0.104,-0.3 0.178,-0.3 0.112,0 0.252,0.19 0.417,0.59 0.16,0.41 0.338,0.95 0.516,1.67 0.266,1.06 0.486,2.09 0.634,3.11 0.146,0.99 0.222,1.87 0.222,2.6 0,0.31 -0.032,0.58 -0.093,0.8 -0.063,0.21 -0.144,0.32 -0.237,0.32 -0.163,0 -0.347,-0.25 -0.535,-0.75 -0.188,-0.51 -0.387,-1.23 -0.575,-2.15 -0.18,-0.93 -0.332,-1.84 -0.434,-2.77 -0.101,-0.92 -0.156,-1.69 -0.156,-2.32 z m 2.153,6.08 c 0.135,0.72 0.277,1.44 0.412,2.15 0.222,0.05 0.444,0.1 0.664,0.14 -0.361,-2.06 -0.744,-4.12 -1.106,-6.19 -0.158,-0.9 -0.266,-1.53 -0.309,-1.88 -0.044,-0.35 -0.065,-0.65 -0.065,-0.91 0,-0.19 0.01,-0.33 0.036,-0.42 0.023,-0.09 0.063,-0.14 0.116,-0.14 0.085,0 0.226,0.26 0.404,0.77 0.178,0.51 0.412,1.26 0.683,2.27 0.078,0.28 0.174,0.63 0.275,1.03 0.102,0.41 0.163,0.61 0.188,0.61 0.019,0 0.034,-0.01 0.045,-0.03 0.008,-0.02 0.014,-0.05 0.014,-0.11 0,-0.12 -0.042,-0.35 -0.114,-0.68 -0.072,-0.33 -0.194,-0.77 -0.349,-1.33 -0.347,-1.29 -0.617,-2.13 -0.782,-2.51 -0.169,-0.41 -0.328,-0.6 -0.476,-0.6 -0.133,0 -0.237,0.16 -0.305,0.46 -0.071,0.29 -0.107,0.75 -0.107,1.33 0,0.15 0.004,0.33 0.008,0.52 0.006,0.19 0.021,0.47 0.04,0.84 -0.226,-1.03 -0.457,-1.82 -0.664,-2.34 -0.213,-0.55 -0.419,-0.81 -0.605,-0.81 -0.182,0 -0.321,0.34 -0.423,0.98 -0.101,0.65 -0.156,1.54 -0.156,2.68 0,0.27 0.004,0.56 0.019,0.84 0.01,0.27 0.025,0.55 0.044,0.82 -0.038,-0.23 -0.08,-0.39 -0.114,-0.51 -0.034,-0.12 -0.068,-0.19 -0.093,-0.19 -0.023,0 -0.038,0.01 -0.049,0.03 -0.004,0.02 -0.01,0.05 -0.01,0.11 0,0.08 0.046,0.31 0.129,0.68 0.082,0.37 0.203,0.8 0.345,1.33 0.308,1.12 0.634,1.99 0.947,2.6 0.311,0.62 0.605,0.91 0.865,0.91 0.163,0 0.292,-0.16 0.389,-0.45 0.091,-0.3 0.144,-0.7 0.144,-1.21 0,-0.12 -0.006,-0.24 -0.011,-0.37 -0.004,-0.12 -0.014,-0.26 -0.029,-0.42 z"
         style="fill:#002060;fill-opacity:1;fill-rule:evenodd;stroke:none"
         transform="matrix(1.3333333,0,0,-1.3333333,0,1122.56)" />
      <path
         id="path149"
         d="m 86.619,705.97 c 0,-0.33 0.022,-0.61 0.066,-0.8 0.042,-0.2 0.101,-0.3 0.175,-0.3 0.115,0 0.254,0.19 0.419,0.59 0.159,0.41 0.339,0.95 0.516,1.67 0.265,1.06 0.485,2.09 0.635,3.11 0.144,0.99 0.222,1.87 0.222,2.6 0,0.31 -0.032,0.58 -0.095,0.8 -0.062,0.21 -0.142,0.32 -0.235,0.32 -0.163,0 -0.349,-0.25 -0.537,-0.75 -0.189,-0.51 -0.387,-1.23 -0.576,-2.15 -0.177,-0.93 -0.329,-1.84 -0.431,-2.77 -0.101,-0.92 -0.159,-1.69 -0.159,-2.32 z m 2.155,6.08 c 0.73,4.71 1.506,9.41 2.238,14.11 0.218,0.03 0.436,0.07 0.653,0.1 -0.898,-5.65 -1.85,-11.3 -2.749,-16.95 -0.169,-1.05 -0.3,-1.89 -0.378,-2.5 -0.077,-0.63 -0.119,-1.1 -0.119,-1.41 0,-0.15 0.017,-0.27 0.051,-0.36 0.027,-0.08 0.068,-0.14 0.112,-0.14 0.074,0 0.209,0.28 0.398,0.84 0.188,0.56 0.433,1.35 0.697,2.35 0.06,0.21 0.132,0.47 0.208,0.8 0.097,0.4 0.163,0.59 0.186,0.59 0.021,0 0.036,-0.01 0.044,-0.03 0.011,-0.02 0.015,-0.05 0.015,-0.11 0,-0.12 -0.04,-0.35 -0.112,-0.68 -0.072,-0.33 -0.195,-0.77 -0.349,-1.33 -0.347,-1.29 -0.618,-2.13 -0.782,-2.51 -0.17,-0.41 -0.33,-0.6 -0.476,-0.6 -0.134,0 -0.239,0.16 -0.307,0.46 -0.072,0.29 -0.108,0.75 -0.108,1.33 0,0.15 0.007,0.33 0.011,0.52 0.004,0.19 0.019,0.47 0.04,0.84 -0.228,-1.03 -0.457,-1.82 -0.664,-2.34 -0.214,-0.55 -0.419,-0.81 -0.605,-0.81 -0.182,0 -0.321,0.34 -0.423,0.98 -0.101,0.65 -0.159,1.54 -0.159,2.68 0,0.27 0.007,0.56 0.022,0.84 0.008,0.27 0.023,0.55 0.044,0.82 -0.04,-0.23 -0.08,-0.39 -0.114,-0.51 -0.034,-0.12 -0.068,-0.19 -0.093,-0.19 -0.026,0 -0.04,0.01 -0.049,0.03 -0.006,0.02 -0.01,0.05 -0.01,0.11 0,0.08 0.046,0.31 0.129,0.68 0.08,0.37 0.203,0.8 0.342,1.33 0.309,1.12 0.635,1.99 0.95,2.6 0.308,0.62 0.605,0.91 0.865,0.91 0.163,0 0.292,-0.16 0.389,-0.45 0.091,-0.3 0.142,-0.7 0.142,-1.21 0,-0.12 -0.005,-0.24 -0.009,-0.37 -0.006,-0.12 -0.017,-0.26 -0.03,-0.42 z"
         style="fill:#002060;fill-opacity:1;fill-rule:evenodd;stroke:none"
         transform="matrix(1.3333333,0,0,-1.3333333,0,1122.56)" />
      <path
         id="path150"
         d="m 90.938,712.25 c -0.18,-0.65 -0.379,-1.38 -0.571,-2.17 -0.199,-0.81 -0.319,-1.21 -0.353,-1.21 -0.015,0 -0.026,0.02 -0.03,0.04 -0.006,0.01 -0.01,0.03 -0.01,0.07 0,0.15 0.116,0.68 0.334,1.59 0.218,0.91 0.543,2.11 0.943,3.6 0.241,0.06 0.482,0.11 0.723,0.17 -0.325,-1.86 -0.67,-3.71 -0.998,-5.57 -0.207,-1.21 -0.349,-2.01 -0.402,-2.41 -0.059,-0.41 -0.089,-0.74 -0.089,-0.96 0,-0.18 0.019,-0.34 0.053,-0.48 0.034,-0.14 0.074,-0.21 0.119,-0.21 0.122,0 0.279,0.25 0.456,0.72 0.18,0.47 0.43,1.27 0.724,2.41 0.053,0.23 0.129,0.51 0.215,0.86 0.132,0.52 0.212,0.78 0.248,0.78 0.015,0 0.03,-0.01 0.044,-0.05 0.009,-0.03 0.015,-0.07 0.015,-0.12 0,-0.11 -0.032,-0.28 -0.084,-0.52 -0.053,-0.25 -0.187,-0.74 -0.379,-1.46 -0.332,-1.22 -0.599,-2.04 -0.768,-2.46 -0.169,-0.44 -0.328,-0.65 -0.461,-0.65 -0.163,0 -0.298,0.21 -0.393,0.61 -0.102,0.41 -0.152,0.97 -0.152,1.65 0,0.91 0.239,2.6 0.698,5.1 0.052,0.3 0.093,0.51 0.118,0.67 z m 1.239,7.72 c 0,0.39 0.045,0.75 0.131,1.1 0.083,0.33 0.178,0.51 0.282,0.51 0.082,0 0.148,-0.09 0.196,-0.28 0.049,-0.19 0.074,-0.45 0.074,-0.75 0,-0.4 -0.042,-0.77 -0.122,-1.1 -0.083,-0.35 -0.174,-0.53 -0.277,-0.53 -0.083,0 -0.148,0.11 -0.201,0.3 -0.053,0.19 -0.083,0.45 -0.083,0.75 z"
         style="fill:#002060;fill-opacity:1;fill-rule:evenodd;stroke:none"
         transform="matrix(1.3333333,0,0,-1.3333333,0,1122.56)" />
      <path
         id="path151"
         d="m 100.8,722.58 c 0,-1.98 -0.18,-4.25 -0.52,-6.8 -0.333,-2.56 -0.798,-4.83 -1.344,-6.84 -0.41,-1.52 -0.846,-2.67 -1.266,-3.49 -0.428,-0.83 -0.838,-1.23 -1.21,-1.23 -0.463,0 -0.842,0.61 -1.117,1.82 -0.275,1.21 -0.423,2.83 -0.423,4.84 0,2.08 0.174,4.3 0.501,6.63 0.328,2.32 0.819,4.52 1.411,6.6 0.527,1.86 1.106,3.3 1.688,4.36 0.575,1.03 1.129,1.55 1.63,1.55 0.38,0 0.69,-0.33 0.93,-1.01 0.23,-0.69 0.35,-1.56 0.35,-2.64 0,-0.58 0,-0.98 -0.02,-1.22 -0.02,-0.27 -0.05,-0.39 -0.09,-0.39 -0.01,0 -0.02,0.03 -0.02,0.1 -0.01,0.06 -0.02,0.15 -0.02,0.27 0,0.05 0.01,0.17 0.01,0.4 0.01,0.21 0.01,0.4 0.01,0.56 0,1.06 -0.1,1.92 -0.29,2.53 -0.2,0.62 -0.47,0.91 -0.81,0.91 -0.441,0 -0.921,-0.48 -1.41,-1.48 -0.494,-1 -0.977,-2.38 -1.402,-4.15 -0.545,-2.24 -1.011,-4.75 -1.347,-7.56 -0.338,-2.82 -0.516,-5.26 -0.516,-7.36 0,-1.28 0.091,-2.27 0.271,-3.03 0.173,-0.75 0.416,-1.12 0.721,-1.12 0.374,0 0.806,0.47 1.265,1.44 0.459,0.95 0.907,2.22 1.288,3.83 0.463,1.92 0.86,4.05 1.15,6.37 0.29,2.33 0.44,4.34 0.44,6.04 0,1.17 -0.07,2.09 -0.2,2.77 -0.13,0.69 -0.32,1.02 -0.544,1.02 -0.368,0 -0.8,-0.84 -1.269,-2.54 -0.472,-1.69 -0.876,-3.75 -1.161,-6.18 -0.091,-0.79 -0.172,-1.59 -0.235,-2.41 -0.064,-0.83 -0.108,-1.25 -0.138,-1.25 -0.01,0 -0.021,0.06 -0.025,0.16 -0.008,0.11 -0.015,0.23 -0.015,0.37 0,0.86 0.057,1.87 0.159,3.07 0.099,1.21 0.249,2.4 0.427,3.59 0.26,1.76 0.607,3.19 1.002,4.3 0.392,1.1 0.777,1.64 1.132,1.64 0.317,0 0.567,-0.38 0.747,-1.17 0.17,-0.79 0.26,-1.89 0.26,-3.3 z"
         style="fill:#002060;fill-opacity:1;fill-rule:evenodd;stroke:none"
         transform="matrix(1.3333333,0,0,-1.3333333,0,1122.56)" />
      <path
         id="path152"
         d="m 100.1,704.36 c 0.42,2.33 0.88,4.65 1.3,6.98 0.02,0.08 0.04,0.19 0.07,0.33 0.17,0.89 0.26,1.5 0.26,1.82 0,0.15 -0.01,0.28 -0.03,0.36 -0.03,0.07 -0.06,0.11 -0.11,0.11 -0.11,0 -0.25,-0.25 -0.42,-0.74 -0.17,-0.49 -0.43,-1.36 -0.76,-2.64 -0.07,-0.26 -0.16,-0.59 -0.25,-0.99 -0.11,-0.51 -0.189,-0.75 -0.225,-0.75 -0.015,0 -0.024,0.01 -0.034,0.05 -0.011,0.02 -0.015,0.05 -0.015,0.09 0,0.08 0.015,0.22 0.044,0.38 0.034,0.16 0.1,0.44 0.19,0.81 0.1,0.41 0.21,0.82 0.32,1.24 0.32,1.24 0.57,2.06 0.73,2.5 0.16,0.42 0.32,0.63 0.46,0.63 0.12,0 0.21,-0.16 0.29,-0.46 0.06,-0.3 0.1,-0.72 0.1,-1.24 0,-0.54 -0.03,-1.12 -0.09,-1.73 -0.07,-0.61 -0.17,-1.33 -0.31,-2.13 0.5,2.04 0.91,3.47 1.18,4.3 0.26,0.82 0.49,1.22 0.65,1.22 0.11,0 0.21,-0.16 0.28,-0.47 0.06,-0.32 0.1,-0.74 0.1,-1.26 0,-0.89 -0.17,-2.15 -0.5,-3.76 -0.05,-0.26 -0.1,-0.47 -0.12,-0.61 -0.18,-0.89 -0.31,-1.54 -0.37,-1.96 -0.06,-0.43 -0.1,-0.78 -0.1,-1.04 0,-0.22 0.02,-0.37 0.04,-0.48 0.03,-0.12 0.07,-0.17 0.13,-0.17 0.08,0 0.22,0.26 0.4,0.78 0.19,0.53 0.42,1.28 0.68,2.28 0.08,0.28 0.17,0.62 0.27,1.04 0.1,0.43 0.17,0.63 0.19,0.63 0.02,0 0.03,-0.01 0.05,-0.05 0.01,-0.05 0.02,-0.09 0.02,-0.12 0,-0.19 -0.15,-0.8 -0.44,-1.87 -0.02,-0.07 -0.04,-0.14 -0.06,-0.21 -0.27,-1.02 -0.51,-1.77 -0.7,-2.26 -0.18,-0.5 -0.33,-0.75 -0.42,-0.75 -0.15,0 -0.27,0.23 -0.35,0.7 -0.09,0.48 -0.14,1.09 -0.14,1.84 0,0.54 0.04,1.12 0.13,1.71 0.07,0.59 0.25,1.48 0.52,2.69 0.03,0.16 0.09,0.39 0.15,0.67 0.19,0.85 0.29,1.41 0.29,1.69 0,0.16 -0.01,0.26 -0.03,0.32 -0.01,0.05 -0.04,0.08 -0.08,0.08 -0.16,0 -0.48,-0.83 -0.93,-2.5 -0.46,-1.66 -1.03,-3.92 -1.66,-6.81 -0.23,-0.09 -0.47,-0.16 -0.7,-0.25 z"
         style="fill:#002060;fill-opacity:1;fill-rule:evenodd;stroke:none"
         transform="matrix(1.3333333,0,0,-1.3333333,0,1122.56)" />
      <path
         id="path153"
         d="m 104.98,706.08 c 0,-0.44 0.03,-0.75 0.08,-0.97 0.05,-0.21 0.13,-0.31 0.23,-0.31 0.11,0 0.26,0.19 0.43,0.6 0.17,0.38 0.35,0.89 0.52,1.53 0.22,0.84 0.39,1.73 0.52,2.68 0.13,0.92 0.19,1.78 0.19,2.55 0,0.56 -0.03,0.99 -0.1,1.33 -0.06,0.31 -0.16,0.47 -0.28,0.47 -0.15,0 -0.31,-0.25 -0.48,-0.72 -0.17,-0.49 -0.36,-1.22 -0.55,-2.18 -0.17,-0.89 -0.32,-1.79 -0.41,-2.68 -0.1,-0.89 -0.15,-1.66 -0.15,-2.3 z m 1.69,1.57 c 0.01,0 0.02,-0.02 0.04,-0.04 0.05,-0.05 0.09,-0.07 0.12,-0.07 0.14,0 0.28,0.14 0.43,0.42 0.14,0.28 0.28,0.67 0.41,1.16 0.04,0.18 0.09,0.36 0.13,0.54 0,0.02 0.02,0.05 0.04,0.07 0.01,0.02 0.03,0.03 0.04,0.03 0.01,0 0.03,-0.01 0.03,-0.05 0.01,-0.03 0.01,-0.09 0.01,-0.16 0,-0.05 0,-0.1 0,-0.12 0,-0.02 0,-0.03 -0.01,-0.05 -0.04,-0.16 -0.08,-0.32 -0.11,-0.47 -0.14,-0.6 -0.3,-1.05 -0.47,-1.37 -0.18,-0.33 -0.37,-0.48 -0.56,-0.48 -0.06,0 -0.1,0 -0.13,0.01 -0.04,0.02 -0.07,0.02 -0.1,0.04 -0.23,-0.93 -0.47,-1.63 -0.7,-2.14 -0.23,-0.5 -0.44,-0.75 -0.63,-0.75 -0.21,0 -0.38,0.32 -0.5,0.96 -0.11,0.65 -0.17,1.56 -0.17,2.77 0,0.22 0,0.47 0.02,0.73 0.01,0.26 0.03,0.58 0.06,0.91 -0.06,-0.26 -0.1,-0.44 -0.14,-0.54 -0.03,-0.13 -0.06,-0.18 -0.09,-0.18 -0.01,0 -0.02,0.02 -0.04,0.04 0,0.01 0,0.05 0,0.1 0,0.07 0.02,0.23 0.07,0.46 0.05,0.22 0.17,0.69 0.34,1.38 0.29,1.17 0.61,2.08 0.92,2.74 0.3,0.65 0.59,0.98 0.85,0.98 0.21,0 0.39,-0.23 0.51,-0.7 0.12,-0.47 0.18,-1.1 0.18,-1.89 0,-0.61 -0.04,-1.27 -0.13,-1.95 -0.08,-0.69 -0.23,-1.49 -0.42,-2.38 z"
         style="fill:#002060;fill-opacity:1;fill-rule:evenodd;stroke:none"
         transform="matrix(1.3333333,0,0,-1.3333333,0,1122.56)" />
      <path
         id="path154"
         d="m 107.9,704.4 c 0.43,2.31 0.88,4.62 1.31,6.94 0.01,0.07 0.03,0.15 0.04,0.22 0.18,0.98 0.28,1.63 0.28,1.93 0,0.15 -0.01,0.28 -0.03,0.36 -0.03,0.07 -0.06,0.11 -0.11,0.11 -0.11,0 -0.25,-0.25 -0.42,-0.74 -0.17,-0.49 -0.43,-1.36 -0.76,-2.64 -0.07,-0.26 -0.15,-0.59 -0.25,-0.99 -0.11,-0.51 -0.19,-0.75 -0.22,-0.75 -0.02,0 -0.03,0.01 -0.04,0.05 -0.01,0.02 -0.01,0.05 -0.01,0.09 0,0.08 0.01,0.22 0.04,0.38 0.04,0.16 0.1,0.44 0.19,0.81 0.1,0.41 0.22,0.82 0.32,1.24 0.32,1.24 0.57,2.06 0.74,2.5 0.16,0.42 0.31,0.63 0.45,0.63 0.11,0 0.21,-0.14 0.29,-0.44 0.07,-0.3 0.1,-0.67 0.1,-1.1 0,-0.58 -0.03,-1.16 -0.09,-1.75 -0.06,-0.6 -0.19,-1.49 -0.39,-2.69 0,0.01 0.01,0.02 0.01,0.03 0.36,1.25 0.65,2.19 0.86,2.82 0.12,1.2 0.25,2.04 0.37,2.48 0.12,0.44 0.27,0.65 0.45,0.65 0.07,0 0.13,-0.06 0.17,-0.16 0.04,-0.11 0.06,-0.23 0.06,-0.39 0,-0.42 -0.2,-1.15 -0.59,-2.2 -0.06,-0.16 -0.11,-0.3 -0.14,-0.38 -0.15,-0.39 -0.26,-0.79 -0.32,-1.21 -0.06,-0.42 -0.1,-0.89 -0.1,-1.43 0,-0.3 0.03,-0.53 0.08,-0.7 0.04,-0.18 0.1,-0.26 0.18,-0.26 0.16,0 0.33,0.28 0.5,0.85 0.17,0.58 0.26,0.86 0.26,0.86 0.02,-0.02 0.04,-0.03 0.05,-0.05 0.01,-0.04 0.01,-0.07 0.01,-0.13 0,-0.28 -0.1,-0.68 -0.29,-1.2 -0.18,-0.55 -0.36,-0.81 -0.51,-0.81 -0.14,0 -0.24,0.13 -0.32,0.37 -0.07,0.23 -0.1,0.58 -0.1,1.03 0,0.18 0.01,0.4 0.03,0.67 0.01,0.26 0.05,0.61 0.09,1.05 -0.19,-0.6 -0.42,-1.37 -0.66,-2.3 -0.23,-0.94 -0.52,-2.11 -0.83,-3.51 -0.23,-0.08 -0.47,-0.16 -0.7,-0.24 z"
         style="fill:#002060;fill-opacity:1;fill-rule:evenodd;stroke:none"
         transform="matrix(1.3333333,0,0,-1.3333333,0,1122.56)" />
      <path
         id="path155"
         d="m 111.63,705.97 c 0,-0.33 0.02,-0.61 0.06,-0.8 0.05,-0.2 0.1,-0.3 0.18,-0.3 0.11,0 0.25,0.19 0.42,0.59 0.16,0.41 0.33,0.95 0.51,1.67 0.27,1.06 0.49,2.09 0.64,3.11 0.14,0.99 0.22,1.87 0.22,2.6 0,0.31 -0.03,0.58 -0.1,0.8 -0.06,0.21 -0.14,0.32 -0.23,0.32 -0.16,0 -0.35,-0.25 -0.54,-0.75 -0.19,-0.51 -0.38,-1.23 -0.57,-2.15 -0.18,-0.93 -0.33,-1.84 -0.44,-2.77 -0.1,-0.92 -0.15,-1.69 -0.15,-2.32 z m 2.15,6.08 c 0.14,0.72 0.28,1.44 0.42,2.15 0.22,0.05 0.44,0.1 0.66,0.14 -0.36,-2.06 -0.75,-4.12 -1.11,-6.19 -0.16,-0.9 -0.27,-1.53 -0.31,-1.88 -0.04,-0.35 -0.06,-0.65 -0.06,-0.91 0,-0.19 0.01,-0.33 0.03,-0.42 0.03,-0.09 0.07,-0.14 0.12,-0.14 0.08,0 0.23,0.26 0.4,0.77 0.18,0.51 0.42,1.26 0.69,2.27 0.07,0.28 0.17,0.63 0.27,1.03 0.1,0.41 0.17,0.61 0.19,0.61 0.02,0 0.04,-0.01 0.04,-0.03 0.01,-0.02 0.02,-0.05 0.02,-0.11 0,-0.12 -0.04,-0.35 -0.11,-0.68 -0.08,-0.33 -0.2,-0.77 -0.35,-1.33 -0.35,-1.29 -0.62,-2.13 -0.79,-2.51 -0.16,-0.41 -0.33,-0.6 -0.47,-0.6 -0.13,0 -0.24,0.16 -0.31,0.46 -0.07,0.29 -0.11,0.75 -0.11,1.33 0,0.15 0.01,0.33 0.02,0.52 0,0.19 0.01,0.47 0.03,0.84 -0.22,-1.03 -0.45,-1.82 -0.66,-2.34 -0.21,-0.55 -0.42,-0.81 -0.61,-0.81 -0.18,0 -0.32,0.34 -0.42,0.98 -0.1,0.65 -0.16,1.54 -0.16,2.68 0,0.27 0.01,0.56 0.02,0.84 0.01,0.27 0.03,0.55 0.05,0.82 -0.04,-0.23 -0.08,-0.39 -0.11,-0.51 -0.04,-0.12 -0.07,-0.19 -0.1,-0.19 -0.02,0 -0.04,0.01 -0.05,0.03 0,0.02 -0.01,0.05 -0.01,0.11 0,0.08 0.05,0.31 0.13,0.68 0.08,0.37 0.21,0.8 0.35,1.33 0.3,1.12 0.63,1.99 0.95,2.6 0.3,0.62 0.6,0.91 0.86,0.91 0.16,0 0.29,-0.16 0.39,-0.45 0.09,-0.3 0.14,-0.7 0.14,-1.21 0,-0.12 0,-0.24 -0.01,-0.37 0,-0.12 -0.01,-0.26 -0.03,-0.42 z"
         style="fill:#002060;fill-opacity:1;fill-rule:evenodd;stroke:none"
         transform="matrix(1.3333333,0,0,-1.3333333,0,1122.56)" />
      <path
         id="path156"
         d="m 115.19,704.36 c 0.43,2.33 0.88,4.65 1.31,6.98 0.02,0.08 0.04,0.19 0.06,0.33 0.17,0.89 0.26,1.5 0.26,1.82 0,0.15 -0.01,0.28 -0.03,0.36 -0.02,0.07 -0.06,0.11 -0.11,0.11 -0.11,0 -0.25,-0.25 -0.41,-0.74 -0.17,-0.49 -0.44,-1.36 -0.77,-2.64 -0.07,-0.26 -0.15,-0.59 -0.24,-0.99 -0.12,-0.51 -0.2,-0.75 -0.23,-0.75 -0.01,0 -0.02,0.01 -0.03,0.05 -0.01,0.02 -0.02,0.05 -0.02,0.09 0,0.08 0.02,0.22 0.05,0.38 0.03,0.16 0.09,0.44 0.18,0.81 0.11,0.41 0.22,0.82 0.32,1.24 0.32,1.24 0.57,2.06 0.74,2.5 0.16,0.42 0.31,0.63 0.45,0.63 0.13,0 0.22,-0.16 0.29,-0.46 0.07,-0.3 0.11,-0.72 0.11,-1.24 0,-0.54 -0.04,-1.12 -0.1,-1.73 -0.06,-0.61 -0.17,-1.33 -0.31,-2.13 0.5,2.04 0.91,3.47 1.18,4.3 0.27,0.82 0.49,1.22 0.66,1.22 0.11,0 0.2,-0.16 0.27,-0.47 0.07,-0.32 0.1,-0.74 0.1,-1.26 0,-0.89 -0.17,-2.15 -0.49,-3.76 -0.06,-0.26 -0.1,-0.47 -0.13,-0.61 -0.17,-0.89 -0.3,-1.54 -0.36,-1.96 -0.07,-0.43 -0.1,-0.78 -0.1,-1.04 0,-0.22 0.01,-0.37 0.04,-0.48 0.02,-0.12 0.07,-0.17 0.12,-0.17 0.08,0 0.22,0.26 0.41,0.78 0.18,0.53 0.42,1.28 0.68,2.28 0.08,0.28 0.17,0.62 0.27,1.04 0.1,0.43 0.16,0.63 0.19,0.63 0.01,0 0.03,-0.01 0.04,-0.05 0.02,-0.05 0.02,-0.09 0.02,-0.12 0,-0.19 -0.15,-0.8 -0.43,-1.87 -0.02,-0.07 -0.04,-0.14 -0.06,-0.21 -0.28,-1.02 -0.52,-1.77 -0.7,-2.26 -0.19,-0.5 -0.33,-0.75 -0.43,-0.75 -0.14,0 -0.26,0.23 -0.35,0.7 -0.09,0.48 -0.13,1.09 -0.13,1.84 0,0.54 0.04,1.12 0.12,1.71 0.08,0.59 0.26,1.48 0.52,2.69 0.04,0.16 0.09,0.39 0.15,0.67 0.19,0.85 0.3,1.41 0.3,1.69 0,0.16 -0.01,0.26 -0.03,0.32 -0.01,0.05 -0.04,0.08 -0.09,0.08 -0.15,0 -0.47,-0.83 -0.93,-2.5 -0.46,-1.66 -1.03,-3.92 -1.65,-6.81 -0.24,-0.09 -0.47,-0.16 -0.71,-0.25 z"
         style="fill:#002060;fill-opacity:1;fill-rule:evenodd;stroke:none"
         transform="matrix(1.3333333,0,0,-1.3333333,0,1122.56)" />
      <path
         id="path157"
         d="m 119.61,706.44 c 0.34,1.07 0.69,2.08 1.02,3.03 0.32,0.94 0.65,1.83 0.95,2.65 -0.16,-0.16 -0.29,-0.26 -0.38,-0.31 -0.1,-0.07 -0.19,-0.11 -0.27,-0.11 -0.12,0 -0.22,0.06 -0.31,0.18 -0.09,0.1 -0.17,0.28 -0.25,0.54 -0.21,-0.96 -0.43,-1.87 -0.61,-2.69 -0.02,-0.05 -0.02,-0.09 -0.03,-0.11 -0.05,-0.21 -0.1,-0.42 -0.16,-0.63 -0.01,-0.08 -0.03,-0.14 -0.04,-0.17 -0.02,-0.03 -0.03,-0.05 -0.04,-0.05 -0.01,0 -0.02,0.02 -0.04,0.03 0,0.02 -0.01,0.05 -0.01,0.07 0,0.05 0,0.09 0,0.14 0,0.04 0,0.07 0,0.09 0.01,0.02 0.01,0.05 0.01,0.07 0.04,0.16 0.07,0.33 0.11,0.49 0.04,0.16 0.1,0.42 0.18,0.75 0.24,1.05 0.43,1.89 0.55,2.54 -0.01,0.13 -0.02,0.26 -0.03,0.36 -0.01,0.09 -0.01,0.18 -0.01,0.25 0,0.33 0.03,0.61 0.09,0.82 0.05,0.19 0.13,0.29 0.24,0.29 0.08,0 0.15,-0.06 0.2,-0.2 0.04,-0.16 0.07,-0.35 0.07,-0.58 0,-0.18 -0.02,-0.39 -0.04,-0.61 -0.03,-0.23 -0.04,-0.39 -0.04,-0.44 0,-0.17 0.03,-0.31 0.09,-0.42 0.05,-0.12 0.13,-0.17 0.23,-0.17 0.35,0 0.65,0.34 0.88,1.06 0.23,0.72 0.37,1.07 0.4,1.07 0.04,0 0.08,-0.04 0.1,-0.11 0.02,-0.08 0.04,-0.17 0.04,-0.28 0,-0.4 -0.12,-0.82 -0.36,-1.25 -0.05,-0.09 -0.09,-0.16 -0.11,-0.21 -0.31,-0.79 -0.61,-1.58 -0.9,-2.38 -0.28,-0.81 -0.58,-1.62 -0.84,-2.47 0.03,0.06 0.07,0.14 0.12,0.23 0.33,0.58 0.58,0.86 0.71,0.86 0.12,0 0.22,-0.12 0.29,-0.37 0.07,-0.26 0.11,-0.58 0.11,-0.96 0,-0.37 -0.04,-0.81 -0.11,-1.35 -0.07,-0.54 -0.11,-0.85 -0.11,-0.94 0,-0.11 0.01,-0.19 0.02,-0.28 0.02,-0.09 0.03,-0.12 0.05,-0.12 0.06,0 0.17,0.22 0.32,0.66 0.15,0.44 0.36,1.12 0.63,2.06 0.1,0.37 0.22,0.81 0.33,1.3 0.11,0.47 0.19,0.71 0.21,0.71 0.02,-0.01 0.04,-0.03 0.05,-0.05 0.01,-0.03 0.01,-0.07 0.01,-0.12 0,-0.12 -0.03,-0.33 -0.11,-0.63 -0.07,-0.32 -0.2,-0.79 -0.37,-1.42 -0.31,-1.15 -0.56,-1.93 -0.73,-2.37 -0.17,-0.44 -0.32,-0.67 -0.43,-0.67 -0.12,0 -0.22,0.18 -0.3,0.54 -0.07,0.35 -0.11,0.84 -0.11,1.46 0,0.26 0.02,0.57 0.04,0.91 0.03,0.33 0.04,0.54 0.04,0.64 0,0.04 -0.01,0.07 -0.01,0.11 -0.02,0.01 -0.03,0.03 -0.06,0.03 -0.11,0 -0.26,-0.14 -0.45,-0.42 -0.19,-0.3 -0.37,-0.64 -0.52,-1.05 -0.1,-0.29 -0.22,-0.71 -0.34,-1.29 -0.13,-0.58 -0.23,-0.86 -0.31,-0.86 -0.04,0 -0.08,0.04 -0.1,0.13 -0.02,0.07 -0.03,0.17 -0.03,0.29 0,0.3 0.03,0.58 0.1,0.84 0.08,0.26 0.2,0.56 0.37,0.89 z"
         style="fill:#002060;fill-opacity:1;fill-rule:evenodd;stroke:none"
         transform="matrix(1.3333333,0,0,-1.3333333,0,1122.56)" />
      <path
         id="path158"
         d="m 123.58,708.4 c 0.45,0.35 0.84,1.03 1.16,2.06 0.31,1.04 0.48,1.99 0.48,2.89 0,0.19 -0.02,0.36 -0.05,0.5 -0.03,0.14 -0.08,0.21 -0.13,0.21 -0.22,0 -0.48,-0.54 -0.77,-1.64 -0.29,-1.1 -0.53,-2.43 -0.69,-4.02 z m -0.54,1.19 c -0.06,-0.26 -0.1,-0.44 -0.14,-0.54 -0.03,-0.13 -0.06,-0.18 -0.09,-0.18 -0.01,0 -0.03,0.02 -0.03,0.04 -0.01,0.01 -0.02,0.05 -0.02,0.1 0,0.09 0.04,0.28 0.11,0.6 0.07,0.29 0.17,0.7 0.29,1.17 0.3,1.2 0.62,2.11 0.94,2.76 0.31,0.65 0.61,0.96 0.9,0.96 0.16,0 0.3,-0.16 0.4,-0.45 0.1,-0.32 0.15,-0.72 0.15,-1.21 0,-1 -0.19,-1.94 -0.55,-2.87 -0.36,-0.92 -0.86,-1.62 -1.47,-2.13 -0.02,-0.44 -0.04,-0.75 -0.04,-0.94 -0.01,-0.2 -0.01,-0.37 -0.01,-0.49 0,-0.53 0.03,-0.93 0.11,-1.23 0.06,-0.29 0.16,-0.43 0.29,-0.43 0.17,0 0.36,0.21 0.55,0.61 0.19,0.4 0.42,1.07 0.69,2.01 0.11,0.4 0.23,0.85 0.36,1.36 0.12,0.51 0.2,0.75 0.22,0.75 0.02,0 0.04,-0.01 0.05,-0.05 0.01,-0.03 0.01,-0.07 0.01,-0.12 0,-0.11 -0.03,-0.3 -0.09,-0.56 -0.06,-0.26 -0.2,-0.8 -0.42,-1.59 -0.29,-1.05 -0.56,-1.8 -0.77,-2.26 -0.22,-0.45 -0.44,-0.68 -0.65,-0.68 -0.25,0 -0.45,0.37 -0.61,1.11 -0.16,0.71 -0.24,1.64 -0.24,2.76 0,0.22 0,0.47 0.01,0.73 0.01,0.24 0.03,0.51 0.05,0.77 z"
         style="fill:#002060;fill-opacity:1;fill-rule:evenodd;stroke:none"
         transform="matrix(1.3333333,0,0,-1.3333333,0,1122.56)" />
      <path
         id="path159"
         d="m 128.47,708.4 c 0.45,0.35 0.84,1.03 1.16,2.06 0.31,1.04 0.48,1.99 0.48,2.89 0,0.19 -0.02,0.36 -0.05,0.5 -0.03,0.14 -0.08,0.21 -0.13,0.21 -0.22,0 -0.48,-0.54 -0.77,-1.64 -0.29,-1.1 -0.53,-2.43 -0.69,-4.02 z m -0.54,1.19 c -0.06,-0.26 -0.1,-0.44 -0.13,-0.54 -0.04,-0.13 -0.07,-0.18 -0.09,-0.18 -0.02,0 -0.03,0.02 -0.04,0.04 -0.01,0.01 -0.01,0.05 -0.01,0.1 0,0.09 0.03,0.28 0.1,0.6 0.07,0.29 0.17,0.7 0.29,1.17 0.3,1.2 0.63,2.11 0.94,2.76 0.31,0.65 0.61,0.96 0.9,0.96 0.17,0 0.3,-0.16 0.4,-0.45 0.11,-0.32 0.16,-0.72 0.16,-1.21 0,-1 -0.19,-1.94 -0.56,-2.87 -0.36,-0.92 -0.86,-1.62 -1.47,-2.13 -0.02,-0.44 -0.04,-0.75 -0.04,-0.94 0,-0.2 -0.01,-0.37 -0.01,-0.49 0,-0.53 0.04,-0.93 0.11,-1.23 0.07,-0.29 0.17,-0.43 0.29,-0.43 0.18,0 0.36,0.21 0.55,0.61 0.19,0.4 0.43,1.07 0.69,2.01 0.11,0.4 0.24,0.85 0.36,1.36 0.12,0.51 0.2,0.75 0.23,0.75 0.01,0 0.03,-0.01 0.04,-0.05 0.01,-0.03 0.02,-0.07 0.02,-0.12 0,-0.11 -0.03,-0.3 -0.1,-0.56 -0.06,-0.26 -0.2,-0.8 -0.41,-1.59 -0.29,-1.05 -0.56,-1.8 -0.78,-2.26 -0.22,-0.45 -0.44,-0.68 -0.65,-0.68 -0.25,0 -0.45,0.37 -0.61,1.11 -0.16,0.71 -0.24,1.64 -0.24,2.76 0,0.22 0,0.47 0.01,0.73 0.01,0.24 0.03,0.51 0.05,0.77 z"
         style="fill:#002060;fill-opacity:1;fill-rule:evenodd;stroke:none"
         transform="matrix(1.3333333,0,0,-1.3333333,0,1122.56)" />
      <path
         id="path160"
         d="m 141.07,726.84 c 0,-0.03 -0.03,-0.14 -0.08,-0.33 -0.47,-1.58 -0.97,-4 -1.43,-7.29 -0.03,-0.21 -0.06,-0.41 -0.09,-0.61 -0.66,-4.6 -1.32,-7.93 -1.91,-10.02 -0.41,-1.41 -0.84,-2.48 -1.28,-3.23 -0.43,-0.76 -0.87,-1.14 -1.3,-1.14 -0.41,0 -0.75,0.33 -1,0.98 -0.26,0.65 -0.39,1.49 -0.39,2.48 0,0.51 0.04,0.95 0.13,1.28 0.08,0.33 0.19,0.49 0.32,0.49 0.12,0 0.22,-0.14 0.29,-0.42 0.07,-0.28 0.11,-0.65 0.11,-1.08 0,-0.27 -0.02,-0.58 -0.06,-0.95 -0.04,-0.38 -0.07,-0.61 -0.07,-0.7 0,-0.4 0.08,-0.77 0.22,-1.08 0.15,-0.32 0.33,-0.47 0.55,-0.47 0.35,0 0.7,0.34 1.03,1.03 0.33,0.68 0.66,1.69 0.97,3.02 0.34,1.54 0.77,3.85 1.22,6.91 0.16,1.06 0.28,1.83 0.36,2.32 0.39,2.47 0.85,4.54 1.33,6.28 0.48,1.71 0.84,2.57 1.06,2.57 0.01,0 0.01,0 0.02,0 0,-0.02 0,-0.02 0,-0.04 z m -2.65,-1.26 c 0,-0.31 -0.05,-0.93 -0.15,-1.85 -0.09,-0.93 -0.23,-1.87 -0.38,-2.83 -0.28,-1.86 -0.69,-3.37 -1.19,-4.55 -0.5,-1.19 -0.99,-1.78 -1.45,-1.78 -0.37,0 -0.67,0.33 -0.89,0.98 -0.21,0.65 -0.33,1.49 -0.33,2.51 0,1.77 0.19,3.43 0.55,5.02 0.35,1.58 0.88,2.9 1.53,3.97 0.51,0.9 1.11,1.52 1.75,1.9 0.65,0.4 1.53,0.58 2.67,0.58 0.42,0 0.84,0 1.26,0 0.57,0 1.09,0.14 1.56,0.4 0.06,0.04 0.1,0.06 0.11,0.06 0.05,0 0.08,-0.02 0.1,-0.07 0.03,-0.06 0.04,-0.13 0.04,-0.21 0,-0.39 -0.2,-0.84 -0.58,-1.35 -0.39,-0.51 -0.82,-0.77 -1.3,-0.77 -0.29,0 -0.8,0.12 -1.52,0.39 -0.72,0.24 -1.3,0.36 -1.74,0.36 -0.58,0 -1.16,-0.29 -1.7,-0.91 -0.54,-0.61 -1.04,-1.46 -1.45,-2.57 -0.36,-0.94 -0.64,-1.99 -0.83,-3.12 -0.19,-1.14 -0.29,-2.28 -0.29,-3.38 0,-0.87 0.08,-1.57 0.23,-2.09 0.15,-0.55 0.35,-0.81 0.6,-0.81 0.47,0 0.99,0.73 1.55,2.22 0.55,1.47 1.04,3.36 1.41,5.65 0.08,0.54 0.17,1.1 0.24,1.68 0.08,0.57 0.13,0.87 0.16,0.87 0.01,0 0.02,-0.04 0.03,-0.09 0,-0.05 0.01,-0.12 0.01,-0.21 z"
         style="fill:#002060;fill-opacity:1;fill-rule:evenodd;stroke:none"
         transform="matrix(1.3333333,0,0,-1.3333333,0,1122.56)" />
      <path
         id="path161"
         d="m 139.2,704.4 c 0.42,2.31 0.88,4.62 1.31,6.94 0.01,0.07 0.02,0.15 0.03,0.22 0.19,0.98 0.29,1.63 0.29,1.93 0,0.15 -0.01,0.28 -0.03,0.36 -0.03,0.07 -0.06,0.11 -0.11,0.11 -0.11,0 -0.25,-0.25 -0.42,-0.74 -0.17,-0.49 -0.43,-1.36 -0.76,-2.64 -0.07,-0.26 -0.16,-0.59 -0.25,-0.99 -0.11,-0.51 -0.19,-0.75 -0.23,-0.75 -0.01,0 -0.02,0.01 -0.03,0.05 -0.01,0.02 -0.01,0.05 -0.01,0.09 0,0.08 0.01,0.22 0.04,0.38 0.03,0.16 0.1,0.44 0.19,0.81 0.1,0.41 0.21,0.82 0.32,1.24 0.31,1.24 0.57,2.06 0.73,2.5 0.16,0.42 0.32,0.63 0.46,0.63 0.11,0 0.21,-0.14 0.28,-0.44 0.07,-0.3 0.11,-0.67 0.11,-1.1 0,-0.58 -0.03,-1.16 -0.09,-1.75 -0.06,-0.6 -0.19,-1.49 -0.39,-2.69 0,0.01 0,0.02 0.01,0.03 0.36,1.25 0.65,2.19 0.85,2.82 0.13,1.2 0.26,2.04 0.38,2.48 0.11,0.44 0.27,0.65 0.45,0.65 0.06,0 0.12,-0.06 0.17,-0.16 0.04,-0.11 0.06,-0.23 0.06,-0.39 0,-0.42 -0.2,-1.15 -0.59,-2.2 -0.07,-0.16 -0.11,-0.3 -0.15,-0.38 -0.14,-0.39 -0.25,-0.79 -0.31,-1.21 -0.06,-0.42 -0.1,-0.89 -0.1,-1.43 0,-0.3 0.02,-0.53 0.07,-0.7 0.05,-0.18 0.11,-0.26 0.18,-0.26 0.17,0 0.34,0.28 0.51,0.85 0.17,0.58 0.25,0.86 0.26,0.86 0.02,-0.02 0.03,-0.03 0.04,-0.05 0.01,-0.04 0.02,-0.07 0.02,-0.13 0,-0.28 -0.1,-0.68 -0.29,-1.2 -0.19,-0.55 -0.36,-0.81 -0.51,-0.81 -0.14,0 -0.25,0.13 -0.32,0.37 -0.07,0.23 -0.11,0.58 -0.11,1.03 0,0.18 0.01,0.4 0.03,0.67 0.02,0.26 0.06,0.61 0.1,1.05 -0.2,-0.6 -0.42,-1.37 -0.66,-2.3 -0.23,-0.94 -0.53,-2.11 -0.83,-3.51 -0.23,-0.08 -0.47,-0.16 -0.7,-0.24 z"
         style="fill:#002060;fill-opacity:1;fill-rule:evenodd;stroke:none"
         transform="matrix(1.3333333,0,0,-1.3333333,0,1122.56)" />
      <path
         id="path162"
         d="m 142.92,705.97 c 0,-0.33 0.02,-0.61 0.07,-0.8 0.04,-0.2 0.1,-0.3 0.17,-0.3 0.12,0 0.26,0.19 0.42,0.59 0.16,0.41 0.34,0.95 0.52,1.67 0.27,1.06 0.48,2.09 0.63,3.11 0.15,0.99 0.23,1.87 0.23,2.6 0,0.31 -0.04,0.58 -0.1,0.8 -0.06,0.21 -0.14,0.32 -0.23,0.32 -0.17,0 -0.35,-0.25 -0.54,-0.75 -0.19,-0.51 -0.39,-1.23 -0.58,-2.15 -0.17,-0.93 -0.33,-1.84 -0.43,-2.77 -0.1,-0.92 -0.16,-1.69 -0.16,-2.32 z m 2.16,6.08 c 0.13,0.72 0.28,1.44 0.41,2.15 0.22,0.05 0.44,0.1 0.67,0.14 -0.37,-2.06 -0.75,-4.12 -1.11,-6.19 -0.16,-0.9 -0.27,-1.53 -0.31,-1.88 -0.04,-0.35 -0.07,-0.65 -0.07,-0.91 0,-0.19 0.02,-0.33 0.04,-0.42 0.02,-0.09 0.06,-0.14 0.12,-0.14 0.08,0 0.22,0.26 0.4,0.77 0.18,0.51 0.41,1.26 0.68,2.27 0.08,0.28 0.18,0.63 0.28,1.03 0.1,0.41 0.16,0.61 0.19,0.61 0.02,0 0.03,-0.01 0.04,-0.03 0.01,-0.02 0.01,-0.05 0.01,-0.11 0,-0.12 -0.04,-0.35 -0.11,-0.68 -0.07,-0.33 -0.19,-0.77 -0.35,-1.33 -0.34,-1.29 -0.61,-2.13 -0.78,-2.51 -0.17,-0.41 -0.33,-0.6 -0.48,-0.6 -0.13,0 -0.23,0.16 -0.3,0.46 -0.07,0.29 -0.11,0.75 -0.11,1.33 0,0.15 0.01,0.33 0.01,0.52 0.01,0.19 0.02,0.47 0.04,0.84 -0.23,-1.03 -0.46,-1.82 -0.66,-2.34 -0.22,-0.55 -0.42,-0.81 -0.61,-0.81 -0.18,0 -0.32,0.34 -0.42,0.98 -0.1,0.65 -0.16,1.54 -0.16,2.68 0,0.27 0.01,0.56 0.02,0.84 0.01,0.27 0.03,0.55 0.05,0.82 -0.04,-0.23 -0.08,-0.39 -0.12,-0.51 -0.03,-0.12 -0.07,-0.19 -0.09,-0.19 -0.03,0 -0.04,0.01 -0.05,0.03 0,0.02 -0.01,0.05 -0.01,0.11 0,0.08 0.05,0.31 0.13,0.68 0.08,0.37 0.2,0.8 0.34,1.33 0.31,1.12 0.64,1.99 0.95,2.6 0.31,0.62 0.61,0.91 0.87,0.91 0.16,0 0.29,-0.16 0.38,-0.45 0.1,-0.3 0.15,-0.7 0.15,-1.21 0,-0.12 -0.01,-0.24 -0.01,-0.37 -0.01,-0.12 -0.02,-0.26 -0.03,-0.42 z"
         style="fill:#002060;fill-opacity:1;fill-rule:evenodd;stroke:none"
         transform="matrix(1.3333333,0,0,-1.3333333,0,1122.56)" />
      <path
         id="path163"
         d="m 147.59,713.63 c -0.26,-0.93 -0.54,-1.96 -0.8,-3.1 -0.27,-1.13 -0.43,-1.69 -0.47,-1.69 -0.02,0 -0.03,0.01 -0.04,0.05 -0.01,0.02 -0.01,0.05 -0.01,0.09 0,0.19 0.27,1.3 0.79,3.35 0.21,0.83 0.39,1.49 0.52,1.98 0.05,0.5 0.12,0.87 0.19,1.13 0.06,0.25 0.14,0.37 0.22,0.37 0.06,0 0.12,-0.05 0.15,-0.17 0.03,-0.13 0.05,-0.28 0.05,-0.51 0,-0.19 -0.02,-0.35 -0.05,-0.49 -0.03,-0.16 -0.09,-0.28 -0.16,-0.4 -0.01,-0.02 -0.04,-0.05 -0.07,-0.09 -0.12,-0.16 -0.18,-0.56 -0.18,-1.2 0,-0.46 0.03,-1.16 0.09,-2.12 0.07,-0.96 0.09,-1.66 0.09,-2.13 0,-0.37 -0.01,-0.74 -0.02,-1.07 -0.02,-0.33 -0.06,-0.68 -0.1,-1.05 0.15,0.55 0.32,1.17 0.49,1.87 0.17,0.69 0.28,1.03 0.3,1.03 0.02,0 0.03,-0.01 0.05,-0.05 0.01,-0.03 0.01,-0.07 0.01,-0.12 0,-0.11 -0.03,-0.28 -0.08,-0.54 -0.06,-0.26 -0.17,-0.65 -0.31,-1.19 -0.33,-1.28 -0.63,-2.15 -0.85,-2.62 -0.22,-0.49 -0.45,-0.74 -0.68,-0.74 -0.21,0 -0.37,0.18 -0.5,0.51 -0.12,0.33 -0.18,0.79 -0.18,1.35 0,0.29 0.03,0.57 0.09,0.8 0.06,0.23 0.13,0.35 0.22,0.35 0.06,0 0.11,-0.07 0.15,-0.19 0.04,-0.14 0.06,-0.3 0.06,-0.49 0,-0.12 -0.02,-0.35 -0.06,-0.65 -0.04,-0.3 -0.07,-0.54 -0.07,-0.72 0,-0.12 0.02,-0.21 0.05,-0.28 0.02,-0.07 0.06,-0.1 0.11,-0.1 0.23,0 0.46,0.75 0.68,2.24 0.22,1.48 0.34,3.23 0.34,5.24 0,0.14 0,0.32 -0.01,0.51 0,0.19 -0.01,0.47 -0.01,0.84 z"
         style="fill:#002060;fill-opacity:1;fill-rule:evenodd;stroke:none"
         transform="matrix(1.3333333,0,0,-1.3333333,0,1122.56)" />
      <path
         id="path164"
         d="m 147.28,695.2 c -0.22,-0.09 -0.44,-0.17 -0.65,-0.26 0.96,5.89 1.98,11.77 2.94,17.66 -0.27,-1.03 -0.55,-2.05 -0.81,-3.08 -0.05,-0.21 -0.1,-0.37 -0.14,-0.49 -0.05,-0.12 -0.08,-0.19 -0.09,-0.19 -0.03,0 -0.04,0.01 -0.05,0.03 0,0.02 -0.01,0.05 -0.01,0.11 0,0.05 0.25,1.01 0.72,2.88 0.47,1.87 0.92,3.91 1.31,6.17 0.19,1.09 0.39,2.18 0.59,3.27 0.2,0.06 0.4,0.11 0.6,0.17 -0.7,-4.16 -1.45,-8.32 -2.15,-12.49 0.54,2.15 0.96,3.61 1.22,4.4 0.25,0.77 0.46,1.16 0.62,1.16 0.12,0 0.21,-0.16 0.28,-0.49 0.07,-0.34 0.1,-0.76 0.1,-1.28 0,-0.89 -0.17,-2.15 -0.5,-3.76 -0.05,-0.26 -0.09,-0.47 -0.12,-0.61 -0.18,-0.89 -0.3,-1.54 -0.37,-1.96 -0.06,-0.43 -0.1,-0.78 -0.1,-1.04 0,-0.22 0.02,-0.37 0.04,-0.48 0.03,-0.12 0.07,-0.17 0.13,-0.17 0.08,0 0.22,0.26 0.4,0.78 0.19,0.53 0.42,1.28 0.68,2.28 0.08,0.28 0.17,0.62 0.27,1.04 0.1,0.43 0.17,0.63 0.2,0.63 0.01,0 0.03,-0.01 0.03,-0.05 0.01,-0.03 0.02,-0.07 0.02,-0.12 0,-0.12 -0.03,-0.3 -0.09,-0.56 -0.06,-0.26 -0.2,-0.77 -0.4,-1.52 -0.27,-1.02 -0.51,-1.77 -0.7,-2.26 -0.18,-0.5 -0.33,-0.75 -0.42,-0.75 -0.15,0 -0.27,0.23 -0.35,0.7 -0.09,0.48 -0.14,1.09 -0.14,1.84 0,0.54 0.04,1.12 0.13,1.71 0.07,0.59 0.25,1.48 0.52,2.69 0.03,0.16 0.09,0.39 0.15,0.67 0.19,0.85 0.29,1.41 0.29,1.69 0,0.16 -0.01,0.28 -0.03,0.35 -0.02,0.05 -0.05,0.09 -0.08,0.09 -0.19,0 -0.58,-1.05 -1.13,-3.17 -0.56,-2.11 -1.1,-4.64 -1.58,-7.58 -0.44,-2.67 -0.89,-5.34 -1.33,-8.01 z"
         style="fill:#002060;fill-opacity:1;fill-rule:evenodd;stroke:none"
         transform="matrix(1.3333333,0,0,-1.3333333,0,1122.56)" />
      <path
         id="path165"
         d="m 152.9,706.08 c 0,-0.44 0.03,-0.75 0.08,-0.97 0.05,-0.21 0.13,-0.31 0.23,-0.31 0.11,0 0.26,0.19 0.43,0.6 0.17,0.38 0.35,0.89 0.52,1.53 0.22,0.84 0.4,1.73 0.52,2.68 0.13,0.92 0.19,1.78 0.19,2.55 0,0.56 -0.03,0.99 -0.09,1.33 -0.07,0.31 -0.17,0.47 -0.29,0.47 -0.15,0 -0.31,-0.25 -0.48,-0.72 -0.17,-0.49 -0.36,-1.22 -0.55,-2.18 -0.17,-0.89 -0.32,-1.79 -0.41,-2.68 -0.1,-0.89 -0.15,-1.66 -0.15,-2.3 z m 1.69,1.57 c 0.01,0 0.02,-0.02 0.05,-0.04 0.05,-0.05 0.08,-0.07 0.11,-0.07 0.14,0 0.28,0.14 0.43,0.42 0.14,0.28 0.28,0.67 0.41,1.16 0.04,0.18 0.09,0.36 0.13,0.54 0,0.02 0.02,0.05 0.04,0.07 0.01,0.02 0.03,0.03 0.04,0.03 0.02,0 0.03,-0.01 0.03,-0.05 0.01,-0.03 0.01,-0.09 0.01,-0.16 0,-0.05 0,-0.1 0,-0.12 0,-0.02 0,-0.03 -0.01,-0.05 -0.04,-0.16 -0.08,-0.32 -0.11,-0.47 -0.14,-0.6 -0.3,-1.05 -0.47,-1.37 -0.18,-0.33 -0.37,-0.48 -0.56,-0.48 -0.05,0 -0.1,0 -0.13,0.01 -0.04,0.02 -0.07,0.02 -0.1,0.04 -0.23,-0.93 -0.47,-1.63 -0.7,-2.14 -0.23,-0.5 -0.44,-0.75 -0.63,-0.75 -0.21,0 -0.38,0.32 -0.5,0.96 -0.11,0.65 -0.17,1.56 -0.17,2.77 0,0.22 0,0.47 0.02,0.73 0.01,0.26 0.03,0.58 0.06,0.91 -0.06,-0.26 -0.1,-0.44 -0.14,-0.54 -0.03,-0.13 -0.06,-0.18 -0.08,-0.18 -0.02,0 -0.03,0.02 -0.04,0.04 -0.01,0.01 -0.01,0.05 -0.01,0.1 0,0.07 0.02,0.23 0.08,0.46 0.04,0.22 0.16,0.69 0.33,1.38 0.29,1.17 0.61,2.08 0.92,2.74 0.3,0.65 0.59,0.98 0.85,0.98 0.21,0 0.39,-0.23 0.51,-0.7 0.12,-0.47 0.18,-1.1 0.18,-1.89 0,-0.61 -0.04,-1.27 -0.12,-1.95 -0.09,-0.69 -0.24,-1.49 -0.43,-2.38 z"
         style="fill:#002060;fill-opacity:1;fill-rule:evenodd;stroke:none"
         transform="matrix(1.3333333,0,0,-1.3333333,0,1122.56)" />
      <path
         id="path166"
         d="m 155.82,704.4 c 0.43,2.31 0.88,4.62 1.31,6.94 0.01,0.07 0.03,0.15 0.04,0.22 0.18,0.98 0.28,1.63 0.28,1.93 0,0.15 -0.01,0.28 -0.03,0.36 -0.02,0.07 -0.06,0.11 -0.11,0.11 -0.11,0 -0.25,-0.25 -0.42,-0.74 -0.16,-0.49 -0.43,-1.36 -0.76,-2.64 -0.07,-0.26 -0.15,-0.59 -0.24,-0.99 -0.11,-0.51 -0.2,-0.75 -0.23,-0.75 -0.02,0 -0.03,0.01 -0.03,0.05 -0.02,0.02 -0.02,0.05 -0.02,0.09 0,0.08 0.02,0.22 0.05,0.38 0.03,0.16 0.09,0.44 0.18,0.81 0.11,0.41 0.22,0.82 0.32,1.24 0.32,1.24 0.57,2.06 0.74,2.5 0.16,0.42 0.31,0.63 0.45,0.63 0.11,0 0.21,-0.14 0.29,-0.44 0.07,-0.3 0.1,-0.67 0.1,-1.1 0,-0.58 -0.03,-1.16 -0.08,-1.75 -0.07,-0.6 -0.2,-1.49 -0.4,-2.69 0.01,0.01 0.01,0.02 0.01,0.03 0.36,1.25 0.65,2.19 0.86,2.82 0.12,1.2 0.25,2.04 0.37,2.48 0.12,0.44 0.27,0.65 0.45,0.65 0.07,0 0.13,-0.06 0.17,-0.16 0.04,-0.11 0.06,-0.23 0.06,-0.39 0,-0.42 -0.2,-1.15 -0.59,-2.2 -0.06,-0.16 -0.11,-0.3 -0.14,-0.38 -0.15,-0.39 -0.26,-0.79 -0.32,-1.21 -0.06,-0.42 -0.1,-0.89 -0.1,-1.43 0,-0.3 0.03,-0.53 0.08,-0.7 0.04,-0.18 0.1,-0.26 0.18,-0.26 0.16,0 0.33,0.28 0.5,0.85 0.17,0.58 0.26,0.86 0.26,0.86 0.02,-0.02 0.04,-0.03 0.05,-0.05 0.01,-0.04 0.01,-0.07 0.01,-0.13 0,-0.28 -0.1,-0.68 -0.28,-1.2 -0.19,-0.55 -0.37,-0.81 -0.52,-0.81 -0.14,0 -0.24,0.13 -0.32,0.37 -0.07,0.23 -0.1,0.58 -0.1,1.03 0,0.18 0.01,0.4 0.03,0.67 0.01,0.26 0.05,0.61 0.1,1.05 -0.2,-0.6 -0.43,-1.37 -0.66,-2.3 -0.24,-0.94 -0.53,-2.11 -0.84,-3.51 -0.23,-0.08 -0.47,-0.16 -0.7,-0.24 z"
         style="fill:#002060;fill-opacity:1;fill-rule:evenodd;stroke:none"
         transform="matrix(1.3333333,0,0,-1.3333333,0,1122.56)" />
      <path
         id="path167"
         d="m 159.9,712.25 c -0.18,-0.65 -0.38,-1.38 -0.57,-2.17 -0.2,-0.81 -0.32,-1.21 -0.36,-1.21 -0.01,0 -0.02,0.02 -0.03,0.04 0,0.01 0,0.03 0,0.07 0,0.24 0.2,1.08 0.59,2.51 0.38,1.44 0.67,2.61 0.83,3.5 0.14,0.78 0.29,1.55 0.44,2.32 -0.16,0 -0.33,0 -0.49,0 0.03,0.17 0.06,0.34 0.08,0.51 0.17,0 0.33,0 0.5,0 0.2,1.16 0.41,2.32 0.61,3.48 0.22,0.06 0.44,0.11 0.65,0.17 -0.21,-1.21 -0.43,-2.43 -0.64,-3.65 0.39,0 0.77,0 1.16,0 -0.03,-0.17 -0.06,-0.34 -0.08,-0.51 -0.39,0 -0.78,0 -1.17,0 -0.49,-2.85 -1.01,-5.69 -1.5,-8.54 -0.16,-0.91 -0.28,-1.64 -0.36,-2.19 -0.07,-0.54 -0.12,-0.94 -0.12,-1.18 0,-0.18 0.03,-0.34 0.06,-0.48 0.03,-0.14 0.07,-0.21 0.12,-0.21 0.12,0 0.27,0.23 0.44,0.67 0.17,0.43 0.42,1.25 0.74,2.46 0.07,0.26 0.16,0.58 0.25,0.98 0.11,0.44 0.18,0.66 0.21,0.66 0.01,0 0.03,-0.01 0.04,-0.05 0.01,-0.03 0.02,-0.07 0.02,-0.12 0,-0.11 -0.03,-0.28 -0.08,-0.52 -0.06,-0.25 -0.19,-0.74 -0.38,-1.46 -0.34,-1.22 -0.6,-2.04 -0.77,-2.46 -0.17,-0.44 -0.33,-0.65 -0.46,-0.65 -0.16,0 -0.3,0.21 -0.4,0.61 -0.1,0.41 -0.15,0.97 -0.15,1.65 0,0.91 0.24,2.6 0.7,5.1 0.05,0.3 0.09,0.51 0.12,0.67 z"
         style="fill:#002060;fill-opacity:1;fill-rule:evenodd;stroke:none"
         transform="matrix(1.3333333,0,0,-1.3333333,0,1122.56)" />
      <path
         id="path168"
         d="m 162.12,712.25 c -0.18,-0.65 -0.38,-1.38 -0.58,-2.17 -0.19,-0.81 -0.31,-1.21 -0.35,-1.21 -0.01,0 -0.02,0.02 -0.03,0.04 0,0.01 -0.01,0.03 -0.01,0.07 0,0.15 0.12,0.68 0.34,1.59 0.21,0.91 0.54,2.11 0.94,3.6 0.24,0.06 0.48,0.11 0.72,0.17 -0.32,-1.86 -0.67,-3.71 -1,-5.57 -0.2,-1.21 -0.34,-2.01 -0.4,-2.41 -0.06,-0.41 -0.09,-0.74 -0.09,-0.96 0,-0.18 0.02,-0.34 0.06,-0.48 0.03,-0.14 0.07,-0.21 0.11,-0.21 0.13,0 0.28,0.25 0.46,0.72 0.18,0.47 0.43,1.27 0.72,2.41 0.06,0.23 0.13,0.51 0.22,0.86 0.13,0.52 0.21,0.78 0.25,0.78 0.01,0 0.03,-0.01 0.04,-0.05 0.01,-0.03 0.02,-0.07 0.02,-0.12 0,-0.11 -0.03,-0.28 -0.09,-0.52 -0.05,-0.25 -0.18,-0.74 -0.38,-1.46 -0.33,-1.22 -0.59,-2.04 -0.76,-2.46 -0.17,-0.44 -0.33,-0.65 -0.46,-0.65 -0.17,0 -0.3,0.21 -0.4,0.61 -0.1,0.41 -0.15,0.97 -0.15,1.65 0,0.91 0.24,2.6 0.7,5.1 0.05,0.3 0.09,0.51 0.12,0.67 z m 1.24,7.72 c 0,0.39 0.04,0.75 0.13,1.1 0.08,0.33 0.17,0.51 0.28,0.51 0.08,0 0.15,-0.09 0.19,-0.28 0.05,-0.19 0.08,-0.45 0.08,-0.75 0,-0.4 -0.04,-0.77 -0.12,-1.1 -0.09,-0.35 -0.18,-0.53 -0.28,-0.53 -0.08,0 -0.15,0.11 -0.2,0.3 -0.06,0.19 -0.08,0.45 -0.08,0.75 z"
         style="fill:#002060;fill-opacity:1;fill-rule:evenodd;stroke:none"
         transform="matrix(1.3333333,0,0,-1.3333333,0,1122.56)" />
      <path
         id="path169"
         d="m 171.31,725.55 c 0,-0.32 -0.06,-0.93 -0.15,-1.84 -0.1,-0.91 -0.23,-1.85 -0.38,-2.81 -0.28,-1.86 -0.7,-3.37 -1.2,-4.55 -0.49,-1.19 -0.99,-1.78 -1.45,-1.78 -0.37,0 -0.66,0.33 -0.88,0.98 -0.22,0.65 -0.34,1.49 -0.34,2.51 0,1.77 0.19,3.43 0.55,5.02 0.36,1.58 0.88,2.9 1.53,3.97 0.52,0.9 1.12,1.52 1.76,1.9 0.64,0.4 1.53,0.58 2.66,0.58 0.42,0 0.85,0 1.27,0 0.56,0 1.08,0.14 1.55,0.4 0.07,0.04 0.11,0.06 0.12,0.06 0.04,0 0.08,-0.02 0.1,-0.07 0.02,-0.06 0.04,-0.13 0.04,-0.21 0,-0.39 -0.2,-0.84 -0.59,-1.35 -0.38,-0.51 -0.82,-0.77 -1.3,-0.77 -0.29,0 -0.79,0.12 -1.51,0.39 -0.73,0.24 -1.31,0.36 -1.74,0.36 -0.59,0 -1.16,-0.29 -1.7,-0.91 -0.55,-0.61 -1.05,-1.46 -1.46,-2.57 -0.35,-0.94 -0.63,-1.99 -0.82,-3.12 -0.2,-1.14 -0.3,-2.28 -0.3,-3.38 0,-0.87 0.08,-1.57 0.23,-2.09 0.15,-0.55 0.36,-0.81 0.61,-0.81 0.46,0 0.99,0.73 1.54,2.22 0.55,1.47 1.04,3.36 1.42,5.68 0.08,0.51 0.17,1.05 0.24,1.65 0.07,0.57 0.13,0.87 0.15,0.87 0.01,0 0.02,-0.04 0.03,-0.09 0.01,-0.07 0.02,-0.16 0.02,-0.24 z m 0.69,-9.44 c -0.57,-3.8 -1.25,-6.71 -1.96,-8.78 -0.71,-2.08 -1.44,-3.11 -2.17,-3.11 -0.41,0 -0.75,0.33 -1.01,0.98 -0.26,0.65 -0.39,1.49 -0.39,2.48 0,0.51 0.05,0.95 0.13,1.28 0.08,0.33 0.19,0.49 0.33,0.49 0.11,0 0.21,-0.14 0.28,-0.42 0.08,-0.28 0.12,-0.65 0.12,-1.08 0,-0.27 -0.02,-0.58 -0.07,-0.95 -0.04,-0.38 -0.07,-0.61 -0.07,-0.7 0,-0.4 0.08,-0.77 0.23,-1.08 0.14,-0.32 0.33,-0.47 0.54,-0.47 0.57,0 1.13,0.9 1.65,2.71 0.53,1.8 1.06,4.5 1.53,8.11 -0.58,-0.67 -1.12,-1.84 -1.58,-3.5 -0.12,-0.44 -0.2,-0.66 -0.23,-0.66 -0.02,0.01 -0.03,0.03 -0.03,0.05 -0.01,0.02 -0.01,0.03 -0.01,0.07 0,0.44 0.2,1.18 0.59,2.24 0.38,1.03 0.84,1.86 1.35,2.48 0.47,3.01 1.01,5.54 1.54,7.58 0.54,2.05 0.93,3.08 1.15,3.08 0.01,0 0.02,0 0.03,0 0,0 0.01,-0.02 0.01,-0.03 0,-0.04 -0.03,-0.14 -0.08,-0.34 -0.62,-2.15 -1.24,-5.45 -1.8,-9.87 0.51,0.28 1.03,0.94 1.55,1.97 0.13,0.27 0.21,0.4 0.24,0.4 0.03,0 0.04,-0.01 0.06,-0.05 0.01,-0.03 0.01,-0.09 0.01,-0.14 0,-0.05 -0.04,-0.22 -0.11,-0.56 -0.35,-1.47 -0.67,-3.14 -0.94,-5.01 -0.02,-0.16 -0.04,-0.35 -0.07,-0.58 -0.06,-0.51 -0.12,-0.82 -0.19,-0.96 -0.09,-0.23 -0.21,-0.42 -0.34,-0.61 -0.13,-0.2 -0.21,-0.28 -0.25,-0.28 -0.02,0 -0.03,0.03 -0.04,0.1 -0.01,0.06 -0.01,0.14 -0.01,0.25 0,0.33 0.13,1.11 0.37,2.36 0.24,1.24 0.55,2.51 0.91,3.82 -0.2,-0.31 -0.41,-0.57 -0.62,-0.78 -0.21,-0.23 -0.43,-0.39 -0.65,-0.49 z"
         style="fill:#002060;fill-opacity:1;fill-rule:evenodd;stroke:none"
         transform="matrix(1.3333333,0,0,-1.3333333,0,1122.56)" />
      <path
         id="path170"
         d="m 175.36,707.51 c 0,-0.03 -0.01,-0.06 -0.01,-0.09 -0.18,-0.99 -0.27,-1.68 -0.27,-2.02 0,-0.22 0.02,-0.37 0.04,-0.48 0.03,-0.12 0.07,-0.17 0.12,-0.17 0.09,0 0.22,0.24 0.39,0.73 0.17,0.48 0.41,1.26 0.7,2.33 0.08,0.29 0.17,0.64 0.27,1.06 0.09,0.41 0.16,0.61 0.19,0.61 0.02,0 0.03,-0.01 0.05,-0.03 0.01,-0.04 0.01,-0.07 0.01,-0.11 0,-0.12 -0.02,-0.28 -0.07,-0.5 -0.05,-0.23 -0.16,-0.65 -0.32,-1.26 -0.29,-1.1 -0.55,-1.94 -0.75,-2.5 -0.21,-0.58 -0.37,-0.86 -0.48,-0.86 -0.14,0 -0.26,0.23 -0.34,0.68 -0.09,0.44 -0.13,1.04 -0.13,1.75 0,0.12 0,0.28 0.01,0.44 0,0.16 0.01,0.37 0.03,0.59 -0.27,-1.1 -0.52,-1.95 -0.75,-2.55 -0.22,-0.61 -0.42,-0.91 -0.57,-0.91 -0.17,0 -0.3,0.21 -0.4,0.61 -0.11,0.41 -0.16,0.97 -0.16,1.65 0,0.94 0.26,2.72 0.75,5.36 0.02,0.13 0.05,0.26 0.07,0.39 -0.18,-0.63 -0.37,-1.35 -0.57,-2.15 -0.19,-0.81 -0.31,-1.21 -0.34,-1.21 -0.02,0 -0.03,0.02 -0.04,0.04 -0.01,0.01 -0.02,0.03 -0.02,0.07 0,0.14 0.12,0.64 0.32,1.52 0.21,0.85 0.54,2.07 0.96,3.67 0.25,0.05 0.49,0.09 0.73,0.14 -0.33,-1.85 -0.67,-3.7 -1,-5.54 -0.02,-0.12 -0.04,-0.25 -0.07,-0.37 -0.28,-1.63 -0.42,-2.62 -0.42,-3 0,-0.18 0.01,-0.34 0.05,-0.46 0.02,-0.12 0.07,-0.19 0.11,-0.19 0.27,0 0.63,0.83 1.05,2.5 0.43,1.66 0.91,3.96 1.39,6.92 0.23,0.05 0.45,0.09 0.68,0.14 -0.39,-2.27 -0.81,-4.53 -1.21,-6.8 z"
         style="fill:#002060;fill-opacity:1;fill-rule:evenodd;stroke:none"
         transform="matrix(1.3333333,0,0,-1.3333333,0,1122.56)" />
      <path
         id="path171"
         d="m 176.91,704.36 c 0.42,2.33 0.88,4.65 1.3,6.98 0.02,0.08 0.04,0.19 0.07,0.33 0.17,0.89 0.25,1.5 0.25,1.82 0,0.15 -0.01,0.28 -0.03,0.36 -0.02,0.07 -0.06,0.11 -0.1,0.11 -0.11,0 -0.25,-0.25 -0.42,-0.74 -0.17,-0.49 -0.44,-1.36 -0.76,-2.64 -0.07,-0.26 -0.16,-0.59 -0.25,-0.99 -0.11,-0.51 -0.19,-0.75 -0.23,-0.75 -0.01,0 -0.02,0.01 -0.03,0.05 -0.01,0.02 -0.02,0.05 -0.02,0.09 0,0.08 0.02,0.22 0.05,0.38 0.03,0.16 0.09,0.44 0.19,0.81 0.1,0.41 0.21,0.82 0.32,1.24 0.31,1.24 0.57,2.06 0.73,2.5 0.16,0.42 0.32,0.63 0.45,0.63 0.13,0 0.22,-0.16 0.29,-0.46 0.07,-0.3 0.11,-0.72 0.11,-1.24 0,-0.54 -0.03,-1.12 -0.1,-1.73 -0.06,-0.61 -0.16,-1.33 -0.3,-2.13 0.5,2.04 0.91,3.47 1.18,4.3 0.26,0.82 0.49,1.22 0.65,1.22 0.11,0 0.21,-0.16 0.27,-0.47 0.07,-0.32 0.11,-0.74 0.11,-1.26 0,-0.89 -0.18,-2.15 -0.5,-3.76 -0.05,-0.26 -0.1,-0.47 -0.12,-0.61 -0.18,-0.89 -0.31,-1.54 -0.37,-1.96 -0.06,-0.43 -0.1,-0.78 -0.1,-1.04 0,-0.22 0.02,-0.37 0.04,-0.48 0.02,-0.12 0.07,-0.17 0.12,-0.17 0.09,0 0.23,0.26 0.41,0.78 0.19,0.53 0.42,1.28 0.68,2.28 0.08,0.28 0.17,0.62 0.27,1.04 0.1,0.43 0.17,0.63 0.19,0.63 0.02,0 0.03,-0.01 0.05,-0.05 0.01,-0.05 0.02,-0.09 0.02,-0.12 0,-0.19 -0.16,-0.8 -0.44,-1.87 -0.02,-0.07 -0.04,-0.14 -0.06,-0.21 -0.27,-1.02 -0.52,-1.77 -0.7,-2.26 -0.18,-0.5 -0.33,-0.75 -0.43,-0.75 -0.14,0 -0.26,0.23 -0.35,0.7 -0.08,0.48 -0.13,1.09 -0.13,1.84 0,0.54 0.04,1.12 0.12,1.71 0.08,0.59 0.26,1.48 0.53,2.69 0.03,0.16 0.08,0.39 0.15,0.67 0.19,0.85 0.29,1.41 0.29,1.69 0,0.16 -0.01,0.26 -0.03,0.32 -0.01,0.05 -0.04,0.08 -0.08,0.08 -0.16,0 -0.48,-0.83 -0.93,-2.5 -0.46,-1.66 -1.03,-3.92 -1.66,-6.81 -0.24,-0.09 -0.47,-0.16 -0.7,-0.25 z"
         style="fill:#002060;fill-opacity:1;fill-rule:evenodd;stroke:none"
         transform="matrix(1.3333333,0,0,-1.3333333,0,1122.56)" />
      <path
         id="path172"
         d="m 181.97,708.4 c 0.44,0.35 0.84,1.03 1.16,2.06 0.31,1.04 0.48,1.99 0.48,2.89 0,0.19 -0.02,0.36 -0.05,0.5 -0.04,0.14 -0.08,0.21 -0.13,0.21 -0.22,0 -0.48,-0.54 -0.77,-1.64 -0.29,-1.1 -0.53,-2.43 -0.69,-4.02 z m -0.55,1.19 c -0.05,-0.26 -0.09,-0.44 -0.13,-0.54 -0.03,-0.13 -0.06,-0.18 -0.09,-0.18 -0.01,0 -0.03,0.02 -0.04,0.04 0,0.01 -0.01,0.05 -0.01,0.1 0,0.09 0.04,0.28 0.11,0.6 0.07,0.29 0.17,0.7 0.29,1.17 0.3,1.2 0.62,2.11 0.94,2.76 0.31,0.65 0.61,0.96 0.9,0.96 0.16,0 0.3,-0.16 0.4,-0.45 0.1,-0.32 0.15,-0.72 0.15,-1.21 0,-1 -0.19,-1.94 -0.55,-2.87 -0.36,-0.92 -0.86,-1.62 -1.47,-2.13 -0.02,-0.44 -0.04,-0.75 -0.04,-0.94 -0.01,-0.2 -0.01,-0.37 -0.01,-0.49 0,-0.53 0.03,-0.93 0.1,-1.23 0.07,-0.29 0.17,-0.43 0.3,-0.43 0.17,0 0.36,0.21 0.55,0.61 0.18,0.4 0.42,1.07 0.69,2.01 0.11,0.4 0.23,0.85 0.36,1.36 0.12,0.51 0.2,0.75 0.22,0.75 0.02,0 0.03,-0.01 0.05,-0.05 0.01,-0.03 0.01,-0.07 0.01,-0.12 0,-0.11 -0.03,-0.3 -0.09,-0.56 -0.06,-0.26 -0.21,-0.8 -0.42,-1.59 -0.29,-1.05 -0.56,-1.8 -0.78,-2.26 -0.21,-0.45 -0.43,-0.68 -0.64,-0.68 -0.25,0 -0.45,0.37 -0.61,1.11 -0.16,0.71 -0.24,1.64 -0.24,2.76 0,0.22 0,0.47 0.01,0.73 0.01,0.24 0.03,0.51 0.04,0.77 z"
         style="fill:#002060;fill-opacity:1;fill-rule:evenodd;stroke:none"
         transform="matrix(1.3333333,0,0,-1.3333333,0,1122.56)" />
      <path
         id="path173"
         d="m 187.79,726.26 c -0.82,-5.04 -1.69,-10.09 -2.51,-15.13 -0.34,-2.12 -0.58,-3.52 -0.67,-4.2 -0.1,-0.7 -0.15,-1.2 -0.15,-1.5 0,-0.25 0.03,-0.42 0.07,-0.53 0.05,-0.1 0.12,-0.15 0.23,-0.15 0.36,0 0.69,0.56 0.99,1.69 0.29,1.12 0.48,2.57 0.57,4.34 0.01,0.37 0.03,0.89 0.05,1.53 0.03,1.46 0.15,2.19 0.35,2.19 0.09,0 0.17,-0.12 0.22,-0.37 0.04,-0.26 0.07,-0.63 0.07,-1.1 0,-0.75 -0.06,-1.59 -0.16,-2.51 -0.11,-0.95 -0.28,-1.91 -0.47,-2.87 0.01,0 0.03,-0.02 0.07,-0.05 0.05,-0.04 0.08,-0.06 0.1,-0.06 0.11,0 0.25,0.14 0.4,0.44 0.14,0.28 0.28,0.66 0.41,1.14 0.05,0.17 0.1,0.35 0.15,0.52 0,0.04 0.01,0.07 0.03,0.09 0.01,0.02 0.02,0.03 0.03,0.03 0.02,0 0.03,-0.01 0.03,-0.05 0.01,-0.03 0.01,-0.09 0.01,-0.16 0,-0.07 0,-0.1 0,-0.12 0,-0.02 0,-0.03 -0.01,-0.05 -0.03,-0.16 -0.07,-0.32 -0.11,-0.47 -0.15,-0.62 -0.31,-1.08 -0.48,-1.38 -0.17,-0.32 -0.35,-0.47 -0.54,-0.47 -0.05,0 -0.1,0 -0.14,0.01 -0.03,0.02 -0.07,0.02 -0.1,0.04 -0.24,-0.93 -0.5,-1.64 -0.77,-2.14 -0.26,-0.51 -0.52,-0.75 -0.78,-0.75 -0.18,0 -0.32,0.21 -0.42,0.61 -0.1,0.41 -0.16,0.97 -0.16,1.68 0,0.75 0.13,2.06 0.38,3.97 0.01,0.02 0.01,0.05 0.01,0.07 -0.08,-0.32 -0.16,-0.64 -0.24,-0.96 -0.02,-0.09 -0.04,-0.19 -0.08,-0.32 -0.07,-0.29 -0.11,-0.43 -0.14,-0.43 -0.02,0 -0.03,0.01 -0.04,0.03 0,0.02 -0.01,0.05 -0.01,0.11 0,0.08 0.07,0.4 0.2,0.98 0.59,2.48 1.14,5.19 1.62,8.14 0.42,2.62 0.87,5.23 1.29,7.85 0.23,0.1 0.47,0.21 0.7,0.31 z"
         style="fill:#002060;fill-opacity:1;fill-rule:evenodd;stroke:none"
         transform="matrix(1.3333333,0,0,-1.3333333,0,1122.56)" />
      <path
         id="path174"
         d="m 187.6,704.4 c 0.42,2.31 0.88,4.62 1.3,6.94 0.02,0.07 0.03,0.15 0.04,0.22 0.18,0.98 0.28,1.63 0.28,1.93 0,0.15 -0.01,0.28 -0.03,0.36 -0.02,0.07 -0.06,0.11 -0.11,0.11 -0.1,0 -0.24,-0.25 -0.41,-0.74 -0.17,-0.49 -0.44,-1.36 -0.77,-2.64 -0.06,-0.26 -0.15,-0.59 -0.24,-0.99 -0.11,-0.51 -0.19,-0.75 -0.23,-0.75 -0.01,0 -0.02,0.01 -0.03,0.05 -0.01,0.02 -0.02,0.05 -0.02,0.09 0,0.08 0.02,0.22 0.05,0.38 0.03,0.16 0.09,0.44 0.18,0.81 0.11,0.41 0.22,0.82 0.32,1.24 0.32,1.24 0.58,2.06 0.74,2.5 0.16,0.42 0.32,0.63 0.45,0.63 0.12,0 0.22,-0.14 0.29,-0.44 0.07,-0.3 0.11,-0.67 0.11,-1.1 0,-0.58 -0.03,-1.16 -0.09,-1.75 -0.06,-0.6 -0.2,-1.49 -0.39,-2.69 0,0.01 0,0.02 0.01,0.03 0.35,1.25 0.65,2.19 0.85,2.82 0.13,1.2 0.25,2.04 0.38,2.48 0.11,0.44 0.27,0.65 0.45,0.65 0.06,0 0.12,-0.06 0.17,-0.16 0.04,-0.11 0.06,-0.23 0.06,-0.39 0,-0.42 -0.2,-1.15 -0.6,-2.2 -0.06,-0.16 -0.11,-0.3 -0.14,-0.38 -0.14,-0.39 -0.25,-0.79 -0.31,-1.21 -0.07,-0.42 -0.1,-0.89 -0.1,-1.43 0,-0.3 0.02,-0.53 0.07,-0.7 0.04,-0.18 0.11,-0.26 0.18,-0.26 0.17,0 0.34,0.28 0.51,0.85 0.16,0.58 0.25,0.86 0.26,0.86 0.01,-0.02 0.03,-0.03 0.04,-0.05 0.01,-0.04 0.01,-0.07 0.01,-0.13 0,-0.28 -0.09,-0.68 -0.28,-1.2 -0.19,-0.55 -0.36,-0.81 -0.52,-0.81 -0.13,0 -0.24,0.13 -0.31,0.37 -0.07,0.23 -0.11,0.58 -0.11,1.03 0,0.18 0.01,0.4 0.03,0.67 0.02,0.26 0.05,0.61 0.1,1.05 -0.2,-0.6 -0.42,-1.37 -0.66,-2.3 -0.24,-0.94 -0.53,-2.11 -0.83,-3.51 -0.23,-0.08 -0.47,-0.16 -0.7,-0.24 z"
         style="fill:#002060;fill-opacity:1;fill-rule:evenodd;stroke:none"
         transform="matrix(1.3333333,0,0,-1.3333333,0,1122.56)" />
      <path
         id="path175"
         d="m 191.67,712.25 c -0.18,-0.65 -0.38,-1.38 -0.57,-2.17 -0.2,-0.81 -0.32,-1.21 -0.35,-1.21 -0.02,0 -0.03,0.02 -0.03,0.04 -0.01,0.01 -0.01,0.03 -0.01,0.07 0,0.15 0.12,0.68 0.33,1.59 0.22,0.91 0.55,2.11 0.95,3.6 0.24,0.06 0.48,0.11 0.72,0.17 -0.33,-1.86 -0.67,-3.71 -1,-5.57 -0.21,-1.21 -0.35,-2.01 -0.4,-2.41 -0.06,-0.41 -0.09,-0.74 -0.09,-0.96 0,-0.18 0.02,-0.34 0.05,-0.48 0.04,-0.14 0.08,-0.21 0.12,-0.21 0.12,0 0.28,0.25 0.46,0.72 0.18,0.47 0.43,1.27 0.72,2.41 0.06,0.23 0.13,0.51 0.22,0.86 0.13,0.52 0.21,0.78 0.24,0.78 0.02,0 0.03,-0.01 0.05,-0.05 0.01,-0.03 0.01,-0.07 0.01,-0.12 0,-0.11 -0.03,-0.28 -0.08,-0.52 -0.06,-0.25 -0.19,-0.74 -0.38,-1.46 -0.33,-1.22 -0.6,-2.04 -0.77,-2.46 -0.17,-0.44 -0.33,-0.65 -0.46,-0.65 -0.16,0 -0.3,0.21 -0.39,0.61 -0.1,0.41 -0.16,0.97 -0.16,1.65 0,0.91 0.25,2.6 0.7,5.1 0.06,0.3 0.1,0.51 0.12,0.67 z m 1.24,7.72 c 0,0.39 0.05,0.75 0.13,1.1 0.09,0.33 0.18,0.51 0.28,0.51 0.09,0 0.15,-0.09 0.2,-0.28 0.05,-0.19 0.07,-0.45 0.07,-0.75 0,-0.4 -0.04,-0.77 -0.12,-1.1 -0.08,-0.35 -0.17,-0.53 -0.27,-0.53 -0.09,0 -0.15,0.11 -0.2,0.3 -0.06,0.19 -0.09,0.45 -0.09,0.75 z"
         style="fill:#002060;fill-opacity:1;fill-rule:evenodd;stroke:none"
         transform="matrix(1.3333333,0,0,-1.3333333,0,1122.56)" />
    </g>
  </g>
</svg>
